<svg width="430" height="932" viewBox="0 0 430 932" fill="none" xmlns="http://www.w3.org/2000/svg">
<g clip-path="url(#clip0_26_3920)">
<rect width="430" height="932" fill="#FDFDFD"/>
<rect width="430" height="52" fill="white" fill-opacity="0.08"/>
<rect opacity="0.35" x="381.833" y="21.8334" width="21" height="10.3333" rx="2.16667" stroke="#3C3C43" stroke-opacity="0.6"/>
<path opacity="0.4" d="M404.333 25V29C405.138 28.6612 405.661 27.8731 405.661 27C405.661 26.1269 405.138 25.3388 404.333 25Z" fill="#3C3C43" fill-opacity="0.6"/>
<rect x="383.333" y="23.3334" width="18" height="7.33333" rx="1.33333" fill="black"/>
<path fill-rule="evenodd" clip-rule="evenodd" d="M368.667 23.6152C370.892 23.6153 373.031 24.4694 374.644 26.001C374.765 26.1192 374.959 26.1177 375.079 25.9976L376.239 24.8273C376.3 24.7664 376.334 24.6839 376.333 24.598C376.333 24.5122 376.298 24.4301 376.237 24.3699C372.005 20.3176 365.329 20.3176 361.097 24.3699C361.035 24.43 361.001 24.5121 361 24.598C360.999 24.6838 361.033 24.7663 361.094 24.8273L362.255 25.9976C362.374 26.1179 362.568 26.1194 362.69 26.001C364.302 24.4693 366.442 23.6152 368.667 23.6152ZM368.667 27.4227C369.889 27.4227 371.068 27.8766 371.974 28.6964C372.097 28.8127 372.29 28.8102 372.409 28.6907L373.569 27.5204C373.63 27.459 373.663 27.3757 373.663 27.2892C373.662 27.2027 373.626 27.1201 373.564 27.0599C370.805 24.4955 366.532 24.4955 363.773 27.0599C363.71 27.1201 363.675 27.2027 363.674 27.2893C363.673 27.3758 363.707 27.4591 363.768 27.5204L364.927 28.6907C365.047 28.8102 365.24 28.8127 365.362 28.6964C366.268 27.8772 367.446 27.4233 368.667 27.4227ZM370.989 29.9846C370.991 30.0714 370.957 30.155 370.895 30.2158L368.89 32.2378C368.831 32.2972 368.751 32.3307 368.667 32.3307C368.583 32.3307 368.503 32.2972 368.445 32.2378L366.439 30.2158C366.377 30.155 366.343 30.0713 366.345 29.9845C366.347 29.8977 366.384 29.8156 366.449 29.7574C367.729 28.6751 369.605 28.6751 370.886 29.7574C370.95 29.8156 370.988 29.8978 370.989 29.9846Z" fill="black"/>
<path fill-rule="evenodd" clip-rule="evenodd" d="M355 21.6667H354C353.448 21.6667 353 22.1144 353 22.6667V31.3334C353 31.8856 353.448 32.3334 354 32.3334H355C355.552 32.3334 356 31.8856 356 31.3334V22.6667C356 22.1144 355.552 21.6667 355 21.6667ZM349.333 24H350.333C350.886 24 351.333 24.4477 351.333 25V31.3334C351.333 31.8856 350.886 32.3334 350.333 32.3334H349.333C348.781 32.3334 348.333 31.8856 348.333 31.3334V25C348.333 24.4477 348.781 24 349.333 24ZM345.667 26.3334H344.667C344.114 26.3334 343.667 26.7811 343.667 27.3334V31.3334C343.667 31.8856 344.114 32.3334 344.667 32.3334H345.667C346.219 32.3334 346.667 31.8856 346.667 31.3334V27.3334C346.667 26.7811 346.219 26.3334 345.667 26.3334ZM341 28.3334H340C339.448 28.3334 339 28.7811 339 29.3334V31.3334C339 31.8856 339.448 32.3334 340 32.3334H341C341.552 32.3334 342 31.8856 342 31.3334V29.3334C342 28.7811 341.552 28.3334 341 28.3334Z" fill="black"/>
<path d="M39.0411 20.663C41.2149 20.663 43.0264 22.1874 43.0264 25.6464V25.66C43.0264 28.9208 41.5157 30.869 39.0001 30.869C37.1749 30.869 35.8077 29.8163 35.5001 28.326L35.4864 28.2508H37.2364L37.2569 28.3124C37.5235 28.9891 38.1251 29.4266 39.0069 29.4266C40.5929 29.4266 41.2559 27.909 41.3243 26.0428C41.3311 25.9403 41.338 25.8378 41.338 25.7284H41.297C40.9073 26.6307 39.9229 27.3143 38.5899 27.3143C36.6895 27.3143 35.3497 25.9471 35.3497 24.0946V24.0809C35.3497 22.0917 36.9151 20.663 39.0411 20.663ZM39.0411 25.954C40.169 25.954 41.0304 25.161 41.0304 24.0604V24.0536C41.0304 22.9598 40.169 22.1053 39.0616 22.1053C37.9679 22.1053 37.086 22.953 37.086 24.0194V24.0331C37.086 25.1542 37.92 25.954 39.0411 25.954ZM44.9476 24.245C44.3939 24.245 43.9564 23.8075 43.9564 23.2538C43.9564 22.7001 44.3939 22.2694 44.9476 22.2694C45.5013 22.2694 45.932 22.7001 45.932 23.2538C45.932 23.8075 45.5013 24.245 44.9476 24.245ZM44.9476 29.2626C44.3939 29.2626 43.9564 28.8251 43.9564 28.2714C43.9564 27.7176 44.3939 27.287 44.9476 27.287C45.5013 27.287 45.932 27.7176 45.932 28.2714C45.932 28.8251 45.5013 29.2626 44.9476 29.2626ZM51.7155 30.6981V28.8046H46.7936V27.3007L50.8883 20.8339H53.3971V27.3553H54.737V28.8046H53.3971V30.6981H51.7155ZM48.3795 27.3964H51.7428V22.1669H51.7018L48.3795 27.3485V27.3964ZM58.0322 30.6981V22.5155H57.9911L55.4413 24.2655V22.6454L58.0185 20.8339H59.7616V30.6981H58.0322Z" fill="black"/>
<path d="M20.5156 124.446V120.528H26.3926C27.8314 120.528 28.9492 120.163 29.7461 119.433C30.554 118.691 30.958 117.64 30.958 116.278V116.245C30.958 114.884 30.554 113.838 29.7461 113.107C28.9492 112.377 27.8314 112.012 26.3926 112.012H20.5156V108.044H27.6211C29.3034 108.044 30.7754 108.387 32.0371 109.073C33.2988 109.748 34.2783 110.7 34.9756 111.929C35.6839 113.157 36.0381 114.59 36.0381 116.229V116.262C36.0381 117.911 35.6839 119.35 34.9756 120.578C34.2783 121.807 33.2988 122.758 32.0371 123.434C30.7754 124.109 29.3034 124.446 27.6211 124.446H20.5156ZM17.9922 132V108.044H23.0059V132H17.9922ZM42.3285 132.282C41.1443 132.282 40.1039 132.055 39.2074 131.602C38.3109 131.137 37.6081 130.5 37.099 129.692C36.601 128.873 36.352 127.944 36.352 126.903V126.87C36.352 125.785 36.6231 124.861 37.1654 124.098C37.7077 123.323 38.4936 122.714 39.5229 122.271C40.5521 121.829 41.8028 121.558 43.2748 121.458L50.2143 121.026V124.048L44.0053 124.446C43.0756 124.502 42.3673 124.723 41.8803 125.11C41.3933 125.487 41.1498 125.99 41.1498 126.621V126.654C41.1498 127.307 41.3988 127.822 41.8969 128.198C42.3949 128.563 43.0645 128.746 43.9057 128.746C44.6251 128.746 45.267 128.608 45.8314 128.331C46.407 128.043 46.8552 127.656 47.1762 127.169C47.5082 126.671 47.6742 126.112 47.6742 125.492V120.097C47.6742 119.311 47.4252 118.691 46.9271 118.237C46.4291 117.772 45.7042 117.54 44.7523 117.54C43.8448 117.54 43.1254 117.728 42.5941 118.104C42.0629 118.481 41.7364 118.957 41.6146 119.532L41.5814 119.682H37.1488L37.1654 119.482C37.254 118.387 37.6137 117.413 38.2445 116.561C38.8865 115.708 39.7719 115.044 40.9008 114.568C42.0408 114.081 43.391 113.838 44.9516 113.838C46.49 113.838 47.8236 114.087 48.9525 114.585C50.0814 115.072 50.9558 115.764 51.5756 116.66C52.2064 117.557 52.5219 118.603 52.5219 119.798V132H47.6742V129.344H47.5746C47.2426 129.952 46.8109 130.478 46.2797 130.921C45.7595 131.353 45.1674 131.69 44.5033 131.934C43.8393 132.166 43.1143 132.282 42.3285 132.282ZM63.4275 132.365C61.6235 132.365 60.063 131.994 58.7459 131.253C57.4288 130.511 56.4106 129.449 55.6912 128.065C54.9718 126.682 54.6121 125.027 54.6121 123.102V123.068C54.6121 121.154 54.9773 119.51 55.7078 118.138C56.4383 116.754 57.462 115.692 58.7791 114.95C60.0962 114.209 61.6401 113.838 63.4109 113.838C65.1928 113.838 66.7423 114.209 68.0594 114.95C69.3875 115.681 70.4168 116.738 71.1473 118.121C71.8777 119.493 72.243 121.143 72.243 123.068V123.102C72.243 125.038 71.8777 126.699 71.1473 128.082C70.4279 129.465 69.4096 130.528 68.0926 131.27C66.7755 132 65.2205 132.365 63.4275 132.365ZM63.4441 128.563C64.2299 128.563 64.9106 128.353 65.4861 127.933C66.0727 127.501 66.521 126.881 66.8309 126.073C67.1518 125.254 67.3123 124.264 67.3123 123.102V123.068C67.3123 121.917 67.1518 120.938 66.8309 120.13C66.5099 119.322 66.0561 118.708 65.4695 118.287C64.8829 117.855 64.1967 117.64 63.4109 117.64C62.6362 117.64 61.9555 117.855 61.3689 118.287C60.7934 118.708 60.3452 119.322 60.0242 120.13C59.7033 120.938 59.5428 121.917 59.5428 123.068V123.102C59.5428 124.264 59.6977 125.254 60.0076 126.073C60.3286 126.881 60.7824 127.501 61.3689 127.933C61.9555 128.353 62.6473 128.563 63.4441 128.563ZM74.466 132V108.044H79.3137V132H74.466ZM87.4801 132.282C86.2958 132.282 85.2555 132.055 84.359 131.602C83.4625 131.137 82.7597 130.5 82.2506 129.692C81.7525 128.873 81.5035 127.944 81.5035 126.903V126.87C81.5035 125.785 81.7747 124.861 82.317 124.098C82.8593 123.323 83.6451 122.714 84.6744 122.271C85.7037 121.829 86.9544 121.558 88.4264 121.458L95.3658 121.026V124.048L89.1568 124.446C88.2271 124.502 87.5188 124.723 87.0318 125.11C86.5449 125.487 86.3014 125.99 86.3014 126.621V126.654C86.3014 127.307 86.5504 127.822 87.0484 128.198C87.5465 128.563 88.2161 128.746 89.0572 128.746C89.7766 128.746 90.4186 128.608 90.983 128.331C91.5585 128.043 92.0068 127.656 92.3277 127.169C92.6598 126.671 92.8258 126.112 92.8258 125.492V120.097C92.8258 119.311 92.5768 118.691 92.0787 118.237C91.5807 117.772 90.8557 117.54 89.9039 117.54C88.9964 117.54 88.277 117.728 87.7457 118.104C87.2145 118.481 86.888 118.957 86.7662 119.532L86.733 119.682H82.3004L82.317 119.482C82.4055 118.387 82.7652 117.413 83.3961 116.561C84.038 115.708 84.9234 115.044 86.0523 114.568C87.1923 114.081 88.5426 113.838 90.1031 113.838C91.6415 113.838 92.9752 114.087 94.1041 114.585C95.233 115.072 96.1074 115.764 96.7271 116.66C97.358 117.557 97.6734 118.603 97.6734 119.798V132H92.8258V129.344H92.7262C92.3941 129.952 91.9625 130.478 91.4313 130.921C90.9111 131.353 90.3189 131.69 89.6549 131.934C88.9908 132.166 88.2659 132.282 87.4801 132.282ZM107.299 124.38V120.146H118.057V124.38H107.299ZM128.114 132V108.044H143.986V112.178H133.128V117.922H143.371V121.84H133.128V127.866H143.986V132H128.114ZM146.79 132V114.203H151.637V117.125H151.737C152.202 116.107 152.888 115.304 153.796 114.718C154.703 114.131 155.826 113.838 157.166 113.838C159.125 113.838 160.635 114.43 161.698 115.614C162.771 116.787 163.308 118.42 163.308 120.512V132H158.461V121.508C158.461 120.346 158.184 119.449 157.63 118.818C157.088 118.176 156.275 117.855 155.19 117.855C154.471 117.855 153.845 118.021 153.314 118.354C152.783 118.674 152.368 119.128 152.069 119.715C151.781 120.301 151.637 120.988 151.637 121.773V132H146.79ZM173.052 132.365C171.082 132.365 169.621 131.95 168.669 131.12C167.717 130.29 167.241 128.923 167.241 127.02V117.855H164.768V114.203H167.241V109.854H172.139V114.203H175.393V117.855H172.139V126.488C172.139 127.318 172.321 127.899 172.687 128.231C173.063 128.552 173.616 128.713 174.347 128.713C174.568 128.713 174.762 128.707 174.928 128.696C175.094 128.674 175.249 128.652 175.393 128.63V132.183C175.127 132.227 174.795 132.266 174.396 132.299C174.009 132.343 173.561 132.365 173.052 132.365ZM177.665 132V114.203H182.513V117.308H182.613C182.878 116.212 183.36 115.36 184.057 114.751C184.754 114.142 185.623 113.838 186.663 113.838C186.929 113.838 187.184 113.854 187.427 113.888C187.671 113.921 187.881 113.965 188.058 114.021V118.287C187.859 118.21 187.604 118.149 187.294 118.104C186.984 118.049 186.652 118.021 186.298 118.021C185.501 118.021 184.821 118.176 184.256 118.486C183.692 118.796 183.26 119.25 182.961 119.848C182.663 120.445 182.513 121.176 182.513 122.039V132H177.665ZM194.514 132.282C193.33 132.282 192.29 132.055 191.393 131.602C190.497 131.137 189.794 130.5 189.285 129.692C188.787 128.873 188.538 127.944 188.538 126.903V126.87C188.538 125.785 188.809 124.861 189.351 124.098C189.894 123.323 190.679 122.714 191.709 122.271C192.738 121.829 193.989 121.558 195.461 121.458L202.4 121.026V124.048L196.191 124.446C195.262 124.502 194.553 124.723 194.066 125.11C193.579 125.487 193.336 125.99 193.336 126.621V126.654C193.336 127.307 193.585 127.822 194.083 128.198C194.581 128.563 195.25 128.746 196.092 128.746C196.811 128.746 197.453 128.608 198.017 128.331C198.593 128.043 199.041 127.656 199.362 127.169C199.694 126.671 199.86 126.112 199.86 125.492V120.097C199.86 119.311 199.611 118.691 199.113 118.237C198.615 117.772 197.89 117.54 196.938 117.54C196.031 117.54 195.311 117.728 194.78 118.104C194.249 118.481 193.922 118.957 193.801 119.532L193.767 119.682H189.335L189.351 119.482C189.44 118.387 189.8 117.413 190.43 116.561C191.072 115.708 191.958 115.044 193.087 114.568C194.227 114.081 195.577 113.838 197.137 113.838C198.676 113.838 200.01 114.087 201.138 114.585C202.267 115.072 203.142 115.764 203.762 116.66C204.392 117.557 204.708 118.603 204.708 119.798V132H199.86V129.344H199.761C199.429 129.952 198.997 130.478 198.466 130.921C197.945 131.353 197.353 131.69 196.689 131.934C196.025 132.166 195.3 132.282 194.514 132.282ZM214.036 132.365C212.542 132.365 211.253 131.994 210.168 131.253C209.084 130.511 208.248 129.449 207.661 128.065C207.086 126.682 206.798 125.027 206.798 123.102V123.085C206.798 121.148 207.091 119.493 207.678 118.121C208.265 116.738 209.095 115.681 210.168 114.95C211.253 114.209 212.542 113.838 214.036 113.838C214.877 113.838 215.652 113.976 216.361 114.253C217.069 114.53 217.689 114.928 218.22 115.448C218.762 115.957 219.194 116.572 219.515 117.291H219.614V108.044H224.462V132H219.614V128.962H219.515C219.205 129.67 218.784 130.279 218.253 130.788C217.722 131.286 217.102 131.674 216.394 131.95C215.685 132.227 214.9 132.365 214.036 132.365ZM215.663 128.348C216.449 128.348 217.141 128.137 217.738 127.717C218.336 127.285 218.801 126.676 219.133 125.891C219.465 125.105 219.631 124.175 219.631 123.102V123.085C219.631 122.011 219.46 121.087 219.116 120.312C218.784 119.527 218.32 118.924 217.722 118.503C217.135 118.071 216.449 117.855 215.663 117.855C214.855 117.855 214.158 118.066 213.571 118.486C212.985 118.907 212.531 119.51 212.21 120.296C211.889 121.071 211.729 122 211.729 123.085V123.102C211.729 124.175 211.884 125.105 212.194 125.891C212.515 126.676 212.968 127.285 213.555 127.717C214.153 128.137 214.855 128.348 215.663 128.348ZM232.595 132.282C231.411 132.282 230.371 132.055 229.474 131.602C228.578 131.137 227.875 130.5 227.366 129.692C226.868 128.873 226.619 127.944 226.619 126.903V126.87C226.619 125.785 226.89 124.861 227.432 124.098C227.975 123.323 228.76 122.714 229.79 122.271C230.819 121.829 232.07 121.558 233.542 121.458L240.481 121.026V124.048L234.272 124.446C233.342 124.502 232.634 124.723 232.147 125.11C231.66 125.487 231.417 125.99 231.417 126.621V126.654C231.417 127.307 231.666 127.822 232.164 128.198C232.662 128.563 233.331 128.746 234.172 128.746C234.892 128.746 235.534 128.608 236.098 128.331C236.674 128.043 237.122 127.656 237.443 127.169C237.775 126.671 237.941 126.112 237.941 125.492V120.097C237.941 119.311 237.692 118.691 237.194 118.237C236.696 117.772 235.971 117.54 235.019 117.54C234.112 117.54 233.392 117.728 232.861 118.104C232.33 118.481 232.003 118.957 231.881 119.532L231.848 119.682H227.416L227.432 119.482C227.521 118.387 227.88 117.413 228.511 116.561C229.153 115.708 230.039 115.044 231.168 114.568C232.308 114.081 233.658 113.838 235.218 113.838C236.757 113.838 238.09 114.087 239.219 114.585C240.348 115.072 241.223 115.764 241.842 116.66C242.473 117.557 242.789 118.603 242.789 119.798V132H237.941V129.344H237.841C237.509 129.952 237.078 130.478 236.546 130.921C236.026 131.353 235.434 131.69 234.77 131.934C234.106 132.166 233.381 132.282 232.595 132.282Z" fill="black"/>
<rect width="430" height="212" transform="translate(0 895)" fill="#FDFDFD" fill-opacity="0.92"/>
<rect width="139" height="5" rx="2.5" transform="matrix(-1 0 0 1 284 915)" fill="black"/>
<g clip-path="url(#clip1_26_3920)">
<path d="M34.9888 81.5L30.5728 69.522H32.1416L35.6611 79.5659H35.7939L39.3135 69.522H40.8823L36.4663 81.5H34.9888ZM45.237 81.6577C42.6886 81.6577 41.1115 79.8979 41.1115 77.0342V77.0176C41.1115 74.1455 42.6886 72.394 45.237 72.394C47.7853 72.394 49.3625 74.1455 49.3625 77.0176V77.0342C49.3625 79.8979 47.7853 81.6577 45.237 81.6577ZM45.237 80.3794C46.9303 80.3794 47.8849 79.1426 47.8849 77.0342V77.0176C47.8849 74.9009 46.9303 73.6724 45.237 73.6724C43.5436 73.6724 42.589 74.9009 42.589 77.0176V77.0342C42.589 79.1426 43.5436 80.3794 45.237 80.3794ZM51.2767 81.5V68.999H52.721V81.5H51.2767ZM57.6152 81.5L54.3032 72.5518H55.8305L58.2793 79.9229H58.4121L60.8608 72.5518H62.3882L59.0762 81.5H57.6152ZM67.2077 81.6577C64.651 81.6577 63.1071 79.8647 63.1071 77.0591V77.0508C63.1071 74.2866 64.6842 72.394 67.1163 72.394C69.5485 72.394 71.026 74.2036 71.026 76.8765V77.4409H64.5846C64.6261 79.292 65.6471 80.3711 67.2409 80.3711C68.4528 80.3711 69.1998 79.7983 69.4406 79.2588L69.4738 79.1841H70.9181L70.9015 79.2505C70.5944 80.4624 69.3161 81.6577 67.2077 81.6577ZM67.108 73.6807C65.7799 73.6807 64.7672 74.5854 64.6095 76.2871H69.5568C69.4074 74.519 68.4279 73.6807 67.108 73.6807ZM72.8572 81.5V72.5518H74.3016V73.8799H74.4344C74.7747 72.9419 75.6131 72.394 76.825 72.394C77.0989 72.394 77.4061 72.4272 77.5472 72.4521V73.855C77.2483 73.8052 76.9744 73.772 76.659 73.772C75.2811 73.772 74.3016 74.6436 74.3016 75.9551V81.5H72.8572Z" fill="#007AFF"/>
<path d="M6.44141 75.0391C6.44141 75.4375 6.59375 75.7773 6.91016 76.082L16.0508 85.0234C16.2969 85.2812 16.625 85.4102 17 85.4102C17.7617 85.4102 18.3594 84.8242 18.3594 84.0508C18.3594 83.6758 18.207 83.3359 17.9492 83.0781L9.71094 75.0391L17.9492 67C18.207 66.7305 18.3594 66.3906 18.3594 66.0156C18.3594 65.2539 17.7617 64.668 17 64.668C16.625 64.668 16.2969 64.7969 16.0508 65.0547L6.91016 73.9961C6.59375 74.3008 6.45312 74.6406 6.44141 75.0391Z" fill="#007AFF"/>
</g>
<rect width="375" height="44" transform="translate(27 256)" fill="white"/>
<path d="M44.4526 284V272.022H46.9595V276.886H52.355V272.022H54.8618V284H52.355V278.953H46.9595V284H44.4526ZM61.1754 284.191C60.2402 284.191 59.4351 284.003 58.7599 283.626C58.0848 283.245 57.5674 282.7 57.2077 281.991C56.848 281.277 56.6681 280.425 56.6681 279.435V279.418C56.6681 278.433 56.8507 277.586 57.216 276.878C57.5812 276.17 58.0986 275.625 58.7682 275.243C59.4434 274.855 60.2458 274.662 61.1754 274.662C62.1051 274.662 62.9048 274.853 63.5744 275.234C64.2495 275.616 64.7697 276.164 65.1349 276.878C65.5002 277.586 65.6828 278.433 65.6828 279.418V279.435C65.6828 280.425 65.5029 281.277 65.1432 281.991C64.7835 282.7 64.2661 283.245 63.591 283.626C62.9214 284.003 62.1162 284.191 61.1754 284.191ZM61.1754 282.29C61.6071 282.29 61.9723 282.177 62.2712 281.95C62.57 281.723 62.7996 281.396 62.9601 280.97C63.1206 280.544 63.2008 280.032 63.2008 279.435V279.418C63.2008 278.82 63.1206 278.311 62.9601 277.891C62.7996 277.465 62.5672 277.138 62.2629 276.911C61.964 276.679 61.6016 276.562 61.1754 276.562C60.7493 276.562 60.3841 276.679 60.0797 276.911C59.7809 277.138 59.5513 277.465 59.3908 277.891C59.2303 278.311 59.1501 278.82 59.1501 279.418V279.435C59.1501 280.038 59.2275 280.552 59.3825 280.979C59.543 281.405 59.7726 281.731 60.0714 281.958C60.3758 282.179 60.7438 282.29 61.1754 282.29ZM67.2484 284V274.861H69.6722V276.28H69.8216C69.971 275.782 70.2449 275.398 70.6434 275.126C71.0418 274.85 71.5371 274.711 72.1292 274.711C72.2952 274.711 72.4557 274.722 72.6107 274.745C72.7711 274.767 72.9123 274.794 73.034 274.828V276.944C72.8514 276.9 72.666 276.867 72.4779 276.845C72.2952 276.817 72.1099 276.803 71.9217 276.803C71.4624 276.803 71.064 276.889 70.7264 277.061C70.3888 277.227 70.1287 277.465 69.9461 277.774C69.7635 278.084 69.6722 278.455 69.6722 278.887V284H67.2484ZM76.5669 284.141C75.9914 284.141 75.4767 284.03 75.0229 283.809C74.5747 283.582 74.2233 283.264 73.9687 282.854C73.7142 282.439 73.5869 281.955 73.5869 281.402V281.385C73.5869 280.837 73.7225 280.367 73.9936 279.974C74.2703 279.581 74.6715 279.274 75.1972 279.053C75.7285 278.826 76.3732 278.69 77.1313 278.646L80.5346 278.438V279.916L77.4966 280.115C76.9764 280.143 76.589 280.254 76.3345 280.447C76.0799 280.641 75.9526 280.904 75.9526 281.236V281.252C75.9526 281.601 76.0854 281.875 76.3511 282.074C76.6167 282.273 76.9598 282.373 77.3804 282.373C77.7567 282.373 78.0915 282.298 78.3847 282.149C78.678 282 78.9105 281.798 79.082 281.543C79.2536 281.283 79.3393 280.992 79.3393 280.671V277.758C79.3393 277.359 79.2065 277.055 78.9409 276.845C78.6808 276.629 78.3017 276.521 77.8037 276.521C77.3665 276.521 77.0096 276.596 76.7329 276.745C76.4617 276.889 76.2791 277.097 76.185 277.368L76.1684 277.401H73.9272L73.9355 277.326C74.0019 276.789 74.2039 276.322 74.5415 275.923C74.8846 275.525 75.3439 275.215 75.9194 274.994C76.5005 274.772 77.1728 274.662 77.9365 274.662C78.7444 274.662 79.4306 274.786 79.9951 275.035C80.5596 275.279 80.9884 275.633 81.2817 276.098C81.5805 276.557 81.73 277.11 81.73 277.758V284H79.3393V282.788H79.1899C79.035 283.07 78.8275 283.314 78.5674 283.519C78.3128 283.718 78.014 283.873 77.6709 283.983C77.3333 284.089 76.9653 284.141 76.5669 284.141ZM90.929 284.141C90.1709 284.141 89.5123 283.953 88.9534 283.577C88.4 283.195 87.9712 282.653 87.6668 281.95C87.368 281.247 87.2186 280.409 87.2186 279.435V279.418C87.2186 278.438 87.3652 277.597 87.6585 276.895C87.9573 276.192 88.3834 275.652 88.9368 275.276C89.4902 274.9 90.1543 274.711 90.929 274.711C91.344 274.711 91.7286 274.778 92.0828 274.911C92.4425 275.038 92.7579 275.221 93.0291 275.458C93.3003 275.696 93.5105 275.984 93.66 276.322H93.8094V271.366H96.2332V284H93.8094V282.581H93.66C93.505 282.907 93.2947 283.187 93.0291 283.419C92.769 283.651 92.4619 283.831 92.1077 283.958C91.7535 284.08 91.3606 284.141 90.929 284.141ZM91.7508 282.132C92.1824 282.132 92.5532 282.024 92.8631 281.809C93.173 281.593 93.4109 281.283 93.577 280.879C93.7485 280.475 93.8343 279.996 93.8343 279.443V279.426C93.8343 278.862 93.7485 278.38 93.577 277.982C93.4109 277.578 93.1702 277.268 92.8548 277.052C92.5449 276.831 92.1769 276.72 91.7508 276.72C91.3302 276.72 90.9622 276.831 90.6468 277.052C90.3369 277.268 90.0989 277.578 89.9329 277.982C89.7669 278.38 89.6839 278.859 89.6839 279.418V279.435C89.6839 279.993 89.7669 280.475 89.9329 280.879C90.0989 281.283 90.3369 281.593 90.6468 281.809C90.9567 282.024 91.3247 282.132 91.7508 282.132ZM102.348 284.191C101.423 284.191 100.627 284 99.957 283.618C99.2929 283.231 98.781 282.683 98.4213 281.975C98.0616 281.266 97.8818 280.422 97.8818 279.443V279.435C97.8818 278.466 98.0589 277.625 98.413 276.911C98.7727 276.197 99.2791 275.644 99.9321 275.251C100.591 274.858 101.363 274.662 102.248 274.662C103.139 274.662 103.908 274.853 104.556 275.234C105.203 275.616 105.701 276.15 106.05 276.836C106.398 277.523 106.573 278.328 106.573 279.252V280.007H99.0937V278.488H105.411L104.273 279.924V278.953C104.273 278.405 104.188 277.949 104.016 277.583C103.85 277.218 103.618 276.944 103.319 276.762C103.026 276.574 102.682 276.479 102.29 276.479C101.902 276.479 101.556 276.576 101.252 276.77C100.953 276.958 100.715 277.238 100.538 277.608C100.366 277.974 100.281 278.422 100.281 278.953V279.933C100.281 280.447 100.366 280.887 100.538 281.252C100.71 281.618 100.953 281.897 101.269 282.091C101.584 282.285 101.96 282.381 102.397 282.381C102.752 282.381 103.053 282.329 103.302 282.224C103.551 282.118 103.75 281.997 103.9 281.858C104.055 281.715 104.16 281.584 104.215 281.468L104.24 281.418H106.498L106.481 281.501C106.409 281.789 106.279 282.091 106.091 282.406C105.903 282.716 105.643 283.007 105.311 283.278C104.984 283.549 104.575 283.77 104.082 283.942C103.596 284.108 103.017 284.191 102.348 284.191ZM116.137 284.191C115.213 284.191 114.416 284 113.746 283.618C113.082 283.231 112.57 282.683 112.211 281.975C111.851 281.266 111.671 280.422 111.671 279.443V279.435C111.671 278.466 111.848 277.625 112.202 276.911C112.562 276.197 113.068 275.644 113.721 275.251C114.38 274.858 115.152 274.662 116.037 274.662C116.928 274.662 117.698 274.853 118.345 275.234C118.992 275.616 119.491 276.15 119.839 276.836C120.188 277.523 120.362 278.328 120.362 279.252V280.007H112.883V278.488H119.2L118.063 279.924V278.953C118.063 278.405 117.977 277.949 117.805 277.583C117.639 277.218 117.407 276.944 117.108 276.762C116.815 276.574 116.472 276.479 116.079 276.479C115.692 276.479 115.346 276.576 115.041 276.77C114.742 276.958 114.505 277.238 114.327 277.608C114.156 277.974 114.07 278.422 114.07 278.953V279.933C114.07 280.447 114.156 280.887 114.327 281.252C114.499 281.618 114.742 281.897 115.058 282.091C115.373 282.285 115.75 282.381 116.187 282.381C116.541 282.381 116.843 282.329 117.092 282.224C117.341 282.118 117.54 281.997 117.689 281.858C117.844 281.715 117.949 281.584 118.005 281.468L118.03 281.418H120.287L120.271 281.501C120.199 281.789 120.069 282.091 119.881 282.406C119.692 282.716 119.432 283.007 119.1 283.278C118.774 283.549 118.364 283.77 117.872 283.942C117.385 284.108 116.807 284.191 116.137 284.191ZM124.078 284L120.898 274.861H123.497L125.389 281.734H125.539L127.414 274.861H129.963L126.8 284H124.078ZM134.824 284.191C133.9 284.191 133.103 284 132.433 283.618C131.769 283.231 131.257 282.683 130.898 281.975C130.538 281.266 130.358 280.422 130.358 279.443V279.435C130.358 278.466 130.535 277.625 130.889 276.911C131.249 276.197 131.755 275.644 132.408 275.251C133.067 274.858 133.839 274.662 134.724 274.662C135.615 274.662 136.384 274.853 137.032 275.234C137.679 275.616 138.177 276.15 138.526 276.836C138.875 277.523 139.049 278.328 139.049 279.252V280.007H131.57V278.488H137.887L136.75 279.924V278.953C136.75 278.405 136.664 277.949 136.492 277.583C136.326 277.218 136.094 276.944 135.795 276.762C135.502 276.574 135.159 276.479 134.766 276.479C134.378 276.479 134.032 276.576 133.728 276.77C133.429 276.958 133.191 277.238 133.014 277.608C132.843 277.974 132.757 278.422 132.757 278.953V279.933C132.757 280.447 132.843 280.887 133.014 281.252C133.186 281.618 133.429 281.897 133.745 282.091C134.06 282.285 134.436 282.381 134.874 282.381C135.228 282.381 135.529 282.329 135.778 282.224C136.027 282.118 136.227 281.997 136.376 281.858C136.531 281.715 136.636 281.584 136.692 281.468L136.716 281.418H138.974L138.958 281.501C138.886 281.789 138.756 282.091 138.567 282.406C138.379 282.716 138.119 283.007 137.787 283.278C137.461 283.549 137.051 283.77 136.559 283.942C136.072 284.108 135.493 284.191 134.824 284.191ZM140.623 284V274.861H143.047V276.272H143.196C143.406 275.774 143.733 275.381 144.176 275.093C144.618 274.806 145.166 274.662 145.819 274.662C146.837 274.662 147.612 274.96 148.143 275.558C148.68 276.15 148.948 276.994 148.948 278.09V284H146.525V278.638C146.525 277.99 146.389 277.5 146.118 277.168C145.847 276.836 145.423 276.67 144.848 276.67C144.477 276.67 144.156 276.756 143.885 276.928C143.619 277.094 143.412 277.329 143.262 277.633C143.119 277.938 143.047 278.297 143.047 278.712V284H140.623ZM154.681 284.033C153.574 284.033 152.777 283.84 152.29 283.452C151.803 283.059 151.56 282.42 151.56 281.535V276.687H150.149V274.861H151.56V272.678H154.009V274.861H155.893V276.687H154.009V280.979C154.009 281.388 154.1 281.69 154.283 281.883C154.471 282.071 154.77 282.166 155.179 282.166C155.334 282.166 155.461 282.163 155.561 282.157C155.666 282.146 155.777 282.135 155.893 282.124V283.925C155.744 283.953 155.564 283.978 155.353 284C155.143 284.022 154.919 284.033 154.681 284.033ZM161.493 284.191C160.558 284.191 159.752 284.003 159.077 283.626C158.402 283.245 157.885 282.7 157.525 281.991C157.165 281.277 156.985 280.425 156.985 279.435V279.418C156.985 278.433 157.168 277.586 157.533 276.878C157.899 276.17 158.416 275.625 159.086 275.243C159.761 274.855 160.563 274.662 161.493 274.662C162.422 274.662 163.222 274.853 163.892 275.234C164.567 275.616 165.087 276.164 165.452 276.878C165.817 277.586 166 278.433 166 279.418V279.435C166 280.425 165.82 281.277 165.461 281.991C165.101 282.7 164.583 283.245 163.908 283.626C163.239 284.003 162.434 284.191 161.493 284.191ZM161.493 282.29C161.924 282.29 162.29 282.177 162.588 281.95C162.887 281.723 163.117 281.396 163.277 280.97C163.438 280.544 163.518 280.032 163.518 279.435V279.418C163.518 278.82 163.438 278.311 163.277 277.891C163.117 277.465 162.885 277.138 162.58 276.911C162.281 276.679 161.919 276.562 161.493 276.562C161.067 276.562 160.701 276.679 160.397 276.911C160.098 277.138 159.869 277.465 159.708 277.891C159.548 278.311 159.467 278.82 159.467 279.418V279.435C159.467 280.038 159.545 280.552 159.7 280.979C159.86 281.405 160.09 281.731 160.389 281.958C160.693 282.179 161.061 282.29 161.493 282.29ZM169.309 284.208C168.888 284.208 168.54 284.069 168.263 283.792C167.986 283.516 167.848 283.173 167.848 282.763C167.848 282.354 167.986 282.013 168.263 281.742C168.54 281.465 168.888 281.327 169.309 281.327C169.74 281.327 170.092 281.465 170.363 281.742C170.634 282.013 170.77 282.354 170.77 282.763C170.77 283.173 170.634 283.516 170.363 283.792C170.092 284.069 169.74 284.208 169.309 284.208ZM169.309 278.198C168.888 278.198 168.54 278.059 168.263 277.783C167.986 277.506 167.848 277.163 167.848 276.753C167.848 276.344 167.986 276.004 168.263 275.732C168.54 275.456 168.888 275.317 169.309 275.317C169.74 275.317 170.092 275.456 170.363 275.732C170.634 276.004 170.77 276.344 170.77 276.753C170.77 277.163 170.634 277.506 170.363 277.783C170.092 278.059 169.74 278.198 169.309 278.198ZM180.093 284V273.682H179.961L176.914 275.89V274.313L180.102 272.022H181.587V284H180.093ZM188.557 271.74C189.105 271.74 189.644 271.845 190.176 272.055C190.712 272.265 191.197 272.606 191.628 273.076C192.065 273.547 192.414 274.169 192.674 274.944C192.934 275.713 193.064 276.662 193.064 277.791V277.808C193.064 279.169 192.882 280.334 192.516 281.302C192.151 282.265 191.625 283.004 190.939 283.519C190.253 284.028 189.426 284.282 188.457 284.282C187.788 284.282 187.182 284.16 186.639 283.917C186.103 283.668 185.654 283.322 185.295 282.879C184.935 282.437 184.686 281.922 184.548 281.335L184.523 281.228H186.025L186.058 281.319C186.18 281.651 186.352 281.939 186.573 282.182C186.8 282.426 187.071 282.614 187.386 282.747C187.707 282.879 188.07 282.946 188.474 282.946C189.199 282.946 189.788 282.736 190.242 282.315C190.696 281.889 191.033 281.324 191.255 280.622C191.476 279.919 191.6 279.152 191.628 278.322C191.634 278.245 191.636 278.17 191.636 278.098C191.636 278.021 191.636 277.946 191.636 277.874L191.28 275.882C191.28 275.356 191.158 274.88 190.914 274.454C190.676 274.028 190.353 273.69 189.943 273.441C189.539 273.187 189.083 273.06 188.573 273.06C188.075 273.06 187.622 273.184 187.212 273.433C186.803 273.677 186.476 274.009 186.233 274.429C185.989 274.844 185.867 275.312 185.867 275.832V275.849C185.867 276.38 185.984 276.853 186.216 277.268C186.448 277.678 186.767 278.001 187.171 278.239C187.575 278.472 188.034 278.588 188.549 278.588C189.069 278.588 189.534 278.472 189.943 278.239C190.353 278.007 190.676 277.689 190.914 277.285C191.158 276.875 191.28 276.41 191.28 275.89V275.882H191.769V278.04H191.479C191.335 278.367 191.113 278.671 190.815 278.953C190.521 279.235 190.162 279.462 189.736 279.634C189.315 279.805 188.834 279.891 188.291 279.891C187.544 279.891 186.875 279.717 186.282 279.368C185.69 279.02 185.223 278.544 184.88 277.94C184.537 277.332 184.365 276.646 184.365 275.882V275.865C184.365 275.068 184.545 274.36 184.905 273.74C185.27 273.115 185.768 272.625 186.399 272.271C187.035 271.917 187.754 271.74 188.557 271.74ZM196.24 282.298C195.947 282.298 195.692 282.193 195.476 281.983C195.266 281.767 195.161 281.513 195.161 281.219C195.161 280.92 195.266 280.666 195.476 280.456C195.692 280.245 195.947 280.14 196.24 280.14C196.539 280.14 196.793 280.245 197.004 280.456C197.214 280.666 197.319 280.92 197.319 281.219C197.319 281.513 197.214 281.767 197.004 281.983C196.793 282.193 196.539 282.298 196.24 282.298ZM196.24 275.874C195.947 275.874 195.692 275.768 195.476 275.558C195.266 275.342 195.161 275.088 195.161 274.794C195.161 274.496 195.266 274.241 195.476 274.031C195.692 273.82 195.947 273.715 196.24 273.715C196.539 273.715 196.793 273.82 197.004 274.031C197.214 274.241 197.319 274.496 197.319 274.794C197.319 275.088 197.214 275.342 197.004 275.558C196.793 275.768 196.539 275.874 196.24 275.874ZM203.699 284.282C202.814 284.282 202.056 284.028 201.425 283.519C200.8 283.009 200.318 282.287 199.981 281.352C199.643 280.411 199.474 279.299 199.474 278.015V277.999C199.474 276.715 199.643 275.605 199.981 274.67C200.318 273.735 200.8 273.013 201.425 272.503C202.056 271.994 202.814 271.74 203.699 271.74C204.585 271.74 205.343 271.994 205.974 272.503C206.605 273.013 207.089 273.735 207.426 274.67C207.769 275.605 207.941 276.715 207.941 277.999V278.015C207.941 279.299 207.769 280.411 207.426 281.352C207.089 282.287 206.605 283.009 205.974 283.519C205.343 284.028 204.585 284.282 203.699 284.282ZM203.699 282.979C204.275 282.979 204.765 282.777 205.169 282.373C205.578 281.969 205.891 281.396 206.106 280.655C206.328 279.913 206.439 279.033 206.439 278.015V277.999C206.439 276.98 206.328 276.103 206.106 275.367C205.891 274.626 205.578 274.056 205.169 273.657C204.765 273.253 204.275 273.051 203.699 273.051C203.129 273.051 202.64 273.253 202.23 273.657C201.826 274.056 201.516 274.626 201.3 275.367C201.085 276.103 200.977 276.98 200.977 277.999V278.015C200.977 279.033 201.085 279.913 201.3 280.655C201.516 281.396 201.826 281.969 202.23 282.373C202.64 282.777 203.129 282.979 203.699 282.979ZM213.997 284.282C213.112 284.282 212.354 284.028 211.723 283.519C211.098 283.009 210.616 282.287 210.279 281.352C209.941 280.411 209.772 279.299 209.772 278.015V277.999C209.772 276.715 209.941 275.605 210.279 274.67C210.616 273.735 211.098 273.013 211.723 272.503C212.354 271.994 213.112 271.74 213.997 271.74C214.883 271.74 215.641 271.994 216.272 272.503C216.903 273.013 217.387 273.735 217.724 274.67C218.067 275.605 218.239 276.715 218.239 277.999V278.015C218.239 279.299 218.067 280.411 217.724 281.352C217.387 282.287 216.903 283.009 216.272 283.519C215.641 284.028 214.883 284.282 213.997 284.282ZM213.997 282.979C214.573 282.979 215.063 282.777 215.467 282.373C215.876 281.969 216.189 281.396 216.404 280.655C216.626 279.913 216.737 279.033 216.737 278.015V277.999C216.737 276.98 216.626 276.103 216.404 275.367C216.189 274.626 215.876 274.056 215.467 273.657C215.063 273.253 214.573 273.051 213.997 273.051C213.427 273.051 212.938 273.253 212.528 273.657C212.124 274.056 211.814 274.626 211.598 275.367C211.383 276.103 211.275 276.98 211.275 277.999V278.015C211.275 279.033 211.383 279.913 211.598 280.655C211.814 281.396 212.124 281.969 212.528 282.373C212.938 282.777 213.427 282.979 213.997 282.979ZM225.595 279.725V278.397H228.982C229.84 278.397 230.504 278.176 230.974 277.733C231.445 277.285 231.68 276.668 231.68 275.882V275.865C231.68 275.074 231.445 274.457 230.974 274.014C230.504 273.571 229.84 273.35 228.982 273.35H225.595V272.022H229.364C230.116 272.022 230.78 272.182 231.356 272.503C231.931 272.824 232.383 273.273 232.709 273.848C233.041 274.424 233.207 275.09 233.207 275.849V275.865C233.207 276.623 233.041 277.293 232.709 277.874C232.383 278.455 231.931 278.909 231.356 279.235C230.78 279.562 230.116 279.725 229.364 279.725H225.595ZM224.848 284V272.022H226.342V284H224.848ZM235.246 284V272.022H236.981L241.081 282.016H241.214L245.315 272.022H247.049V284H245.655V274.853H244.924L246.601 272.354L241.779 284H240.517L235.702 272.354L237.371 274.853H236.64V284H235.246Z" fill="black"/>
<g clip-path="url(#clip2_26_3920)">
<path fill-rule="evenodd" clip-rule="evenodd" d="M43 299H402V300H43V299Z" fill="#E5E5EA"/>
</g>
<rect width="375" height="44" transform="translate(27 301)" fill="white"/>
<path d="M47.5903 329L43.5977 317.022H46.4116L49.0596 326.211H49.209L51.8486 317.022H54.6709L50.6782 329H47.5903ZM56.0871 329V319.861H58.5109V329H56.0871ZM57.3073 318.458C56.9365 318.458 56.6156 318.328 56.3444 318.068C56.0732 317.802 55.9377 317.484 55.9377 317.113C55.9377 316.737 56.0732 316.419 56.3444 316.159C56.6156 315.893 56.9365 315.76 57.3073 315.76C57.6836 315.76 58.0046 315.893 58.2702 316.159C58.5358 316.419 58.6686 316.737 58.6686 317.113C58.6686 317.484 58.5358 317.802 58.2702 318.068C58.0046 318.328 57.6836 318.458 57.3073 318.458ZM64.5755 332.212C63.7288 332.212 63.0039 332.102 62.4007 331.88C61.803 331.665 61.3327 331.357 60.9896 330.959C60.6465 330.566 60.4417 330.112 60.3753 329.598V329.556H62.7742L62.7825 329.589C62.8489 329.855 63.0371 330.071 63.347 330.237C63.6624 330.403 64.0885 330.486 64.6253 330.486C65.2728 330.486 65.7764 330.339 66.1361 330.046C66.4958 329.758 66.6756 329.349 66.6756 328.817V327.116H66.5262C66.3602 327.437 66.1416 327.708 65.8704 327.929C65.6048 328.151 65.2949 328.319 64.9407 328.436C64.5921 328.546 64.2075 328.602 63.7869 328.602C63.0233 328.602 62.362 328.419 61.803 328.054C61.2497 327.683 60.8208 327.168 60.5164 326.51C60.2176 325.851 60.0682 325.09 60.0682 324.227V324.21C60.0682 323.314 60.2176 322.528 60.5164 321.853C60.8208 321.178 61.2524 320.652 61.8113 320.276C62.3758 319.9 63.0482 319.711 63.8284 319.711C64.249 319.711 64.6336 319.778 64.9822 319.911C65.3364 320.043 65.6463 320.232 65.9119 320.475C66.1776 320.719 66.3906 321.012 66.5511 321.355H66.6673V319.861H69.0911V328.718C69.0911 329.432 68.9057 330.049 68.535 330.569C68.1697 331.095 67.6496 331.499 66.9744 331.781C66.2993 332.069 65.4997 332.212 64.5755 332.212ZM64.6087 326.742C65.0459 326.742 65.4194 326.637 65.7293 326.427C66.0392 326.211 66.2772 325.915 66.4432 325.539C66.6147 325.162 66.7005 324.722 66.7005 324.219V324.202C66.7005 323.704 66.6147 323.264 66.4432 322.882C66.2772 322.5 66.0392 322.204 65.7293 321.994C65.4194 321.784 65.0459 321.679 64.6087 321.679C64.1715 321.679 63.8008 321.784 63.4964 321.994C63.192 322.204 62.9569 322.5 62.7908 322.882C62.6304 323.259 62.5501 323.699 62.5501 324.202V324.219C62.5501 324.717 62.6304 325.157 62.7908 325.539C62.9569 325.915 63.192 326.211 63.4964 326.427C63.8008 326.637 64.1715 326.742 64.6087 326.742ZM71.1216 329V319.861H73.5454V329H71.1216ZM72.3418 318.458C71.971 318.458 71.65 318.328 71.3789 318.068C71.1077 317.802 70.9721 317.484 70.9721 317.113C70.9721 316.737 71.1077 316.419 71.3789 316.159C71.65 315.893 71.971 315.76 72.3418 315.76C72.7181 315.76 73.039 315.893 73.3047 316.159C73.5703 316.419 73.7031 316.737 73.7031 317.113C73.7031 317.484 73.5703 317.802 73.3047 318.068C73.039 318.328 72.7181 318.458 72.3418 318.458ZM75.6588 329V316.366H78.0827V329H75.6588ZM82.6697 329.141C82.0942 329.141 81.5796 329.03 81.1258 328.809C80.6775 328.582 80.3261 328.264 80.0716 327.854C79.817 327.439 79.6897 326.955 79.6897 326.402V326.385C79.6897 325.837 79.8253 325.367 80.0965 324.974C80.3732 324.581 80.7744 324.274 81.3001 324.053C81.8313 323.826 82.476 323.69 83.2342 323.646L86.6375 323.438V324.916L83.5994 325.115C83.0792 325.143 82.6919 325.254 82.4373 325.447C82.1827 325.641 82.0555 325.904 82.0555 326.236V326.252C82.0555 326.601 82.1883 326.875 82.4539 327.074C82.7195 327.273 83.0626 327.373 83.4832 327.373C83.8595 327.373 84.1943 327.298 84.4876 327.149C84.7809 327 85.0133 326.798 85.1849 326.543C85.3564 326.283 85.4422 325.992 85.4422 325.671V322.758C85.4422 322.359 85.3094 322.055 85.0438 321.845C84.7837 321.629 84.4046 321.521 83.9065 321.521C83.4694 321.521 83.1124 321.596 82.8357 321.745C82.5646 321.889 82.382 322.097 82.2879 322.368L82.2713 322.401H80.0301L80.0384 322.326C80.1048 321.789 80.3068 321.322 80.6443 320.923C80.9874 320.525 81.4467 320.215 82.0223 319.994C82.6033 319.772 83.2757 319.662 84.0394 319.662C84.8473 319.662 85.5335 319.786 86.0979 320.035C86.6624 320.279 87.0913 320.633 87.3846 321.098C87.6834 321.557 87.8328 322.11 87.8328 322.758V329H85.4422V327.788H85.2928C85.1378 328.07 84.9303 328.314 84.6702 328.519C84.4157 328.718 84.1168 328.873 83.7737 328.983C83.4362 329.089 83.0682 329.141 82.6697 329.141ZM89.7968 329V319.861H92.2207V321.272H92.3701C92.5804 320.774 92.9069 320.381 93.3496 320.093C93.7923 319.806 94.3401 319.662 94.9931 319.662C96.0114 319.662 96.7861 319.96 97.3173 320.558C97.8541 321.15 98.1225 321.994 98.1225 323.09V329H95.6987V323.638C95.6987 322.99 95.5631 322.5 95.292 322.168C95.0208 321.836 94.5975 321.67 94.0219 321.67C93.6512 321.67 93.3302 321.756 93.059 321.928C92.7934 322.094 92.5859 322.329 92.4365 322.633C92.2926 322.938 92.2207 323.297 92.2207 323.712V329H89.7968ZM103.855 329.033C102.748 329.033 101.951 328.84 101.464 328.452C100.977 328.059 100.734 327.42 100.734 326.535V321.687H99.3229V319.861H100.734V317.678H103.183V319.861H105.067V321.687H103.183V325.979C103.183 326.388 103.274 326.69 103.457 326.883C103.645 327.071 103.944 327.166 104.353 327.166C104.508 327.166 104.635 327.163 104.735 327.157C104.84 327.146 104.951 327.135 105.067 327.124V328.925C104.918 328.953 104.738 328.978 104.527 329C104.317 329.022 104.093 329.033 103.855 329.033ZM110.625 329.191C109.701 329.191 108.904 329 108.235 328.618C107.571 328.231 107.059 327.683 106.699 326.975C106.339 326.266 106.159 325.422 106.159 324.443V324.435C106.159 323.466 106.337 322.625 106.691 321.911C107.05 321.197 107.557 320.644 108.21 320.251C108.868 319.858 109.64 319.662 110.526 319.662C111.417 319.662 112.186 319.853 112.833 320.234C113.481 320.616 113.979 321.15 114.327 321.836C114.676 322.523 114.85 323.328 114.85 324.252V325.007H107.371V323.488H113.688L112.551 324.924V323.953C112.551 323.405 112.465 322.949 112.294 322.583C112.128 322.218 111.895 321.944 111.596 321.762C111.303 321.574 110.96 321.479 110.567 321.479C110.18 321.479 109.834 321.576 109.53 321.77C109.231 321.958 108.993 322.238 108.816 322.608C108.644 322.974 108.558 323.422 108.558 323.953V324.933C108.558 325.447 108.644 325.887 108.816 326.252C108.987 326.618 109.231 326.897 109.546 327.091C109.862 327.285 110.238 327.381 110.675 327.381C111.029 327.381 111.331 327.329 111.58 327.224C111.829 327.118 112.028 326.997 112.178 326.858C112.332 326.715 112.438 326.584 112.493 326.468L112.518 326.418H114.776L114.759 326.501C114.687 326.789 114.557 327.091 114.369 327.406C114.181 327.716 113.921 328.007 113.589 328.278C113.262 328.549 112.853 328.77 112.36 328.942C111.873 329.108 111.295 329.191 110.625 329.191ZM118.167 329.208C117.747 329.208 117.398 329.069 117.122 328.792C116.845 328.516 116.706 328.173 116.706 327.763C116.706 327.354 116.845 327.013 117.122 326.742C117.398 326.465 117.747 326.327 118.167 326.327C118.599 326.327 118.95 326.465 119.222 326.742C119.493 327.013 119.628 327.354 119.628 327.763C119.628 328.173 119.493 328.516 119.222 328.792C118.95 329.069 118.599 329.208 118.167 329.208ZM118.167 323.198C117.747 323.198 117.398 323.059 117.122 322.783C116.845 322.506 116.706 322.163 116.706 321.753C116.706 321.344 116.845 321.004 117.122 320.732C117.398 320.456 117.747 320.317 118.167 320.317C118.599 320.317 118.95 320.456 119.222 320.732C119.493 321.004 119.628 321.344 119.628 321.753C119.628 322.163 119.493 322.506 119.222 322.783C118.95 323.059 118.599 323.198 118.167 323.198ZM126.213 329V317.022H127.948L132.048 327.016H132.181L136.282 317.022H138.016V329H136.622V319.853H135.891L137.568 317.354L132.745 329H131.484L126.669 317.354L128.338 319.853H127.607V329H126.213ZM142.935 329.158C142.371 329.158 141.862 329.05 141.408 328.834C140.96 328.618 140.603 328.311 140.337 327.913C140.077 327.514 139.947 327.044 139.947 326.501V326.485C139.947 325.954 140.074 325.5 140.329 325.124C140.584 324.742 140.954 324.443 141.441 324.227C141.928 324.011 142.518 323.884 143.209 323.845L146.497 323.646V324.8L143.384 324.999C142.703 325.038 142.205 325.179 141.89 325.422C141.58 325.666 141.425 326.009 141.425 326.452V326.468C141.425 326.922 141.596 327.276 141.939 327.531C142.282 327.78 142.714 327.904 143.234 327.904C143.727 327.904 144.164 327.807 144.546 327.614C144.928 327.415 145.226 327.146 145.442 326.809C145.664 326.471 145.774 326.089 145.774 325.663V322.874C145.774 322.321 145.606 321.9 145.268 321.612C144.936 321.319 144.435 321.172 143.766 321.172C143.229 321.172 142.789 321.269 142.446 321.463C142.103 321.651 141.873 321.919 141.757 322.268L141.748 322.293H140.304L140.312 322.243C140.39 321.773 140.584 321.363 140.893 321.015C141.209 320.66 141.616 320.387 142.114 320.193C142.612 319.994 143.179 319.894 143.815 319.894C144.546 319.894 145.163 320.013 145.666 320.251C146.176 320.489 146.56 320.832 146.82 321.28C147.086 321.723 147.219 322.254 147.219 322.874V329H145.774V327.68H145.642C145.453 327.996 145.224 328.264 144.953 328.485C144.687 328.707 144.385 328.875 144.048 328.992C143.71 329.102 143.339 329.158 142.935 329.158ZM149.448 329V320.052H150.893V321.396H151.025C151.252 320.921 151.579 320.553 152.005 320.292C152.431 320.027 152.973 319.894 153.632 319.894C154.639 319.894 155.411 320.182 155.948 320.757C156.49 321.327 156.761 322.144 156.761 323.206V329H155.317V323.555C155.317 322.747 155.145 322.149 154.802 321.762C154.465 321.369 153.939 321.172 153.225 321.172C152.749 321.172 152.337 321.275 151.988 321.479C151.64 321.684 151.369 321.975 151.175 322.351C150.987 322.727 150.893 323.178 150.893 323.704V329H149.448ZM161.963 329.158C161.288 329.158 160.72 329.03 160.261 328.776C159.802 328.516 159.456 328.139 159.223 327.647C158.996 327.149 158.883 326.549 158.883 325.846V320.052H160.327V325.497C160.327 326.299 160.482 326.897 160.792 327.29C161.108 327.683 161.622 327.879 162.336 327.879C162.729 327.879 163.075 327.821 163.374 327.705C163.678 327.589 163.933 327.423 164.137 327.207C164.342 326.986 164.494 326.72 164.594 326.41C164.699 326.095 164.752 325.741 164.752 325.348V320.052H166.196V329H164.752V327.664H164.619C164.475 327.979 164.279 328.25 164.03 328.477C163.781 328.698 163.482 328.867 163.133 328.983C162.79 329.1 162.4 329.158 161.963 329.158ZM172.136 329.158C171.284 329.158 170.551 328.97 169.936 328.593C169.328 328.217 168.857 327.686 168.525 327C168.199 326.308 168.036 325.494 168.036 324.559V324.551C168.036 323.627 168.199 322.816 168.525 322.119C168.857 321.421 169.325 320.876 169.928 320.483C170.531 320.09 171.237 319.894 172.045 319.894C172.858 319.894 173.556 320.082 174.137 320.458C174.723 320.835 175.171 321.361 175.481 322.036C175.797 322.705 175.954 323.486 175.954 324.376V324.941H168.783V323.787H175.216L174.502 324.841V324.269C174.502 323.566 174.397 322.987 174.186 322.534C173.976 322.08 173.686 321.742 173.315 321.521C172.944 321.294 172.518 321.181 172.037 321.181C171.555 321.181 171.123 321.3 170.742 321.538C170.365 321.77 170.066 322.116 169.845 322.575C169.624 323.035 169.513 323.599 169.513 324.269V324.841C169.513 325.478 169.621 326.023 169.837 326.477C170.053 326.925 170.36 327.271 170.758 327.514C171.157 327.752 171.627 327.871 172.169 327.871C172.573 327.871 172.925 327.816 173.224 327.705C173.522 327.594 173.769 327.453 173.962 327.282C174.156 327.11 174.292 326.936 174.369 326.759L174.402 326.684H175.847L175.83 326.75C175.753 327.055 175.614 327.351 175.415 327.639C175.221 327.921 174.969 328.178 174.66 328.411C174.35 328.638 173.982 328.82 173.556 328.958C173.135 329.091 172.662 329.158 172.136 329.158ZM177.869 329V316.499H179.313V329H177.869ZM186.976 324.725V323.397H190.363C191.221 323.397 191.885 323.176 192.355 322.733C192.826 322.285 193.061 321.668 193.061 320.882V320.865C193.061 320.074 192.826 319.457 192.355 319.014C191.885 318.571 191.221 318.35 190.363 318.35H186.976V317.022H190.745C191.498 317.022 192.162 317.182 192.737 317.503C193.313 317.824 193.764 318.273 194.09 318.848C194.422 319.424 194.588 320.09 194.588 320.849V320.865C194.588 321.623 194.422 322.293 194.09 322.874C193.764 323.455 193.313 323.909 192.737 324.235C192.162 324.562 191.498 324.725 190.745 324.725H186.976ZM186.229 329V317.022H187.724V329H186.229ZM199.848 329.158C198.995 329.158 198.262 328.97 197.648 328.593C197.039 328.217 196.569 327.686 196.237 327C195.91 326.308 195.747 325.494 195.747 324.559V324.551C195.747 323.627 195.91 322.816 196.237 322.119C196.569 321.421 197.037 320.876 197.64 320.483C198.243 320.09 198.948 319.894 199.756 319.894C200.57 319.894 201.267 320.082 201.848 320.458C202.435 320.835 202.883 321.361 203.193 322.036C203.508 322.705 203.666 323.486 203.666 324.376V324.941H196.494V323.787H202.927L202.213 324.841V324.269C202.213 323.566 202.108 322.987 201.898 322.534C201.688 322.08 201.397 321.742 201.026 321.521C200.656 321.294 200.23 321.181 199.748 321.181C199.267 321.181 198.835 321.3 198.453 321.538C198.077 321.77 197.778 322.116 197.557 322.575C197.335 323.035 197.225 323.599 197.225 324.269V324.841C197.225 325.478 197.333 326.023 197.548 326.477C197.764 326.925 198.071 327.271 198.47 327.514C198.868 327.752 199.339 327.871 199.881 327.871C200.285 327.871 200.636 327.816 200.935 327.705C201.234 327.594 201.48 327.453 201.674 327.282C201.868 327.11 202.003 326.936 202.081 326.759L202.114 326.684H203.558L203.542 326.75C203.464 327.055 203.326 327.351 203.127 327.639C202.933 327.921 202.681 328.178 202.371 328.411C202.061 328.638 201.693 328.82 201.267 328.958C200.847 329.091 200.373 329.158 199.848 329.158ZM205.497 329V320.052H206.942V321.38H207.074C207.246 320.91 207.536 320.544 207.946 320.284C208.356 320.024 208.862 319.894 209.465 319.894C209.603 319.894 209.739 319.902 209.872 319.919C210.01 319.93 210.115 319.941 210.187 319.952V321.355C210.038 321.327 209.891 321.308 209.747 321.297C209.609 321.28 209.46 321.272 209.299 321.272C208.84 321.272 208.433 321.363 208.079 321.546C207.725 321.729 207.445 321.983 207.24 322.31C207.041 322.636 206.942 323.018 206.942 323.455V329H205.497ZM214.965 329.158C214.113 329.158 213.38 328.97 212.765 328.593C212.157 328.217 211.686 327.686 211.354 327C211.028 326.308 210.865 325.494 210.865 324.559V324.551C210.865 323.627 211.028 322.816 211.354 322.119C211.686 321.421 212.154 320.876 212.757 320.483C213.36 320.09 214.066 319.894 214.874 319.894C215.687 319.894 216.385 320.082 216.966 320.458C217.552 320.835 218.001 321.361 218.31 322.036C218.626 322.705 218.784 323.486 218.784 324.376V324.941H211.612V323.787H218.045L217.331 324.841V324.269C217.331 323.566 217.226 322.987 217.015 322.534C216.805 322.08 216.515 321.742 216.144 321.521C215.773 321.294 215.347 321.181 214.866 321.181C214.384 321.181 213.952 321.3 213.571 321.538C213.194 321.77 212.896 322.116 212.674 322.575C212.453 323.035 212.342 323.599 212.342 324.269V324.841C212.342 325.478 212.45 326.023 212.666 326.477C212.882 326.925 213.189 327.271 213.587 327.514C213.986 327.752 214.456 327.871 214.998 327.871C215.402 327.871 215.754 327.816 216.053 327.705C216.351 327.594 216.598 327.453 216.791 327.282C216.985 327.11 217.121 326.936 217.198 326.759L217.231 326.684H218.676L218.659 326.75C218.582 327.055 218.443 327.351 218.244 327.639C218.05 327.921 217.799 328.178 217.489 328.411C217.179 328.638 216.811 328.82 216.385 328.958C215.964 329.091 215.491 329.158 214.965 329.158ZM220.407 329V327.954L225.57 321.38V321.247H220.416V320.052H227.272V321.123L222.134 327.672V327.805H227.297V329H220.407Z" fill="black"/>
<g clip-path="url(#clip3_26_3920)">
<path fill-rule="evenodd" clip-rule="evenodd" d="M43 344H402V345H43V344Z" fill="#E5E5EA"/>
</g>
<rect width="375" height="44" transform="translate(27 346)" fill="white"/>
<path d="M49.541 374.307C48.3844 374.307 47.3856 374.053 46.5444 373.543C45.7033 373.034 45.0558 372.309 44.6021 371.369C44.1483 370.428 43.9214 369.31 43.9214 368.015V367.999C43.9214 366.704 44.1483 365.586 44.6021 364.645C45.0558 363.704 45.7005 362.982 46.5361 362.479C47.3773 361.969 48.3789 361.715 49.541 361.715C50.4873 361.715 51.3368 361.9 52.0894 362.271C52.8475 362.642 53.459 363.154 53.9238 363.807C54.3887 364.46 54.6598 365.207 54.7373 366.048V366.156H52.3052L52.2969 366.098C52.2139 365.649 52.0451 365.257 51.7905 364.919C51.536 364.576 51.215 364.31 50.8276 364.122C50.4458 363.934 50.0169 363.84 49.541 363.84C48.9157 363.84 48.3734 364.009 47.9141 364.346C47.4548 364.678 47.1006 365.157 46.8516 365.782C46.6081 366.402 46.4863 367.141 46.4863 367.999V368.015C46.4863 368.867 46.6081 369.606 46.8516 370.231C47.1006 370.857 47.4548 371.338 47.9141 371.676C48.3734 372.013 48.9185 372.182 49.5493 372.182C50.0308 372.182 50.4596 372.096 50.8359 371.925C51.2178 371.748 51.5332 371.501 51.7822 371.186C52.0368 370.865 52.2056 370.492 52.2886 370.065L52.3052 369.991H54.7456V370.09C54.6571 370.926 54.3831 371.659 53.9238 372.29C53.4645 372.921 52.8613 373.416 52.1143 373.776C51.3672 374.13 50.5094 374.307 49.541 374.307ZM60.4616 374.191C59.5264 374.191 58.7212 374.003 58.0461 373.626C57.3709 373.245 56.8535 372.7 56.4938 371.991C56.1341 371.277 55.9543 370.425 55.9543 369.435V369.418C55.9543 368.433 56.1369 367.586 56.5021 366.878C56.8673 366.17 57.3848 365.625 58.0544 365.243C58.7295 364.855 59.5319 364.662 60.4616 364.662C61.3913 364.662 62.1909 364.853 62.8605 365.234C63.5356 365.616 64.0558 366.164 64.4211 366.878C64.7863 367.586 64.9689 368.433 64.9689 369.418V369.435C64.9689 370.425 64.7891 371.277 64.4294 371.991C64.0697 372.7 63.5522 373.245 62.8771 373.626C62.2075 374.003 61.4023 374.191 60.4616 374.191ZM60.4616 372.29C60.8932 372.29 61.2585 372.177 61.5573 371.95C61.8561 371.723 62.0858 371.396 62.2463 370.97C62.4067 370.544 62.487 370.032 62.487 369.435V369.418C62.487 368.82 62.4067 368.311 62.2463 367.891C62.0858 367.465 61.8533 367.138 61.549 366.911C61.2502 366.679 60.8877 366.562 60.4616 366.562C60.0355 366.562 59.6702 366.679 59.3659 366.911C59.0671 367.138 58.8374 367.465 58.6769 367.891C58.5164 368.311 58.4362 368.82 58.4362 369.418V369.435C58.4362 370.038 58.5137 370.552 58.6686 370.979C58.8291 371.405 59.0588 371.731 59.3576 371.958C59.6619 372.179 60.0299 372.29 60.4616 372.29ZM66.5345 374V364.861H68.9583V366.289H69.1077C69.3014 365.774 69.6224 365.375 70.0706 365.093C70.5189 364.806 71.0418 364.662 71.6395 364.662C72.0545 364.662 72.4308 364.731 72.7684 364.869C73.1059 365.002 73.3937 365.193 73.6317 365.442C73.8696 365.691 74.0522 365.993 74.1795 366.347H74.3289C74.4673 366.009 74.672 365.716 74.9432 365.467C75.2143 365.212 75.5325 365.016 75.8978 364.877C76.263 364.734 76.6587 364.662 77.0848 364.662C77.6935 364.662 78.2165 364.786 78.6536 365.035C79.0963 365.284 79.4367 365.638 79.6746 366.098C79.9181 366.551 80.0399 367.094 80.0399 367.725V374H77.616V368.331C77.616 367.96 77.5607 367.653 77.45 367.409C77.3393 367.166 77.1706 366.983 76.9437 366.861C76.7223 366.734 76.4429 366.67 76.1053 366.67C75.7788 366.67 75.4938 366.745 75.2503 366.895C75.0124 367.044 74.827 367.246 74.6942 367.5C74.5613 367.755 74.4949 368.048 74.4949 368.38V374H72.0711V368.223C72.0711 367.896 72.0102 367.617 71.8885 367.384C71.7723 367.152 71.6007 366.975 71.3738 366.853C71.1525 366.731 70.8841 366.67 70.5687 366.67C70.2532 366.67 69.9738 366.751 69.7303 366.911C69.4923 367.066 69.3042 367.282 69.1658 367.559C69.0275 367.83 68.9583 368.14 68.9583 368.488V374H66.5345ZM85.9966 374.191C85.0724 374.191 84.2755 374 83.6059 373.618C82.9419 373.231 82.43 372.683 82.0703 371.975C81.7106 371.266 81.5307 370.422 81.5307 369.443V369.435C81.5307 368.466 81.7078 367.625 82.062 366.911C82.4217 366.197 82.928 365.644 83.581 365.251C84.2396 364.858 85.0115 364.662 85.897 364.662C86.7879 364.662 87.5571 364.853 88.2046 365.234C88.852 365.616 89.3501 366.15 89.6987 366.836C90.0473 367.523 90.2217 368.328 90.2217 369.252V370.007H82.7427V368.488H89.0596L87.9223 369.924V368.953C87.9223 368.405 87.8366 367.949 87.665 367.583C87.499 367.218 87.2666 366.944 86.9678 366.762C86.6745 366.574 86.3314 366.479 85.9385 366.479C85.5511 366.479 85.2052 366.576 84.9009 366.77C84.602 366.958 84.3641 367.238 84.187 367.608C84.0154 367.974 83.9297 368.422 83.9297 368.953V369.933C83.9297 370.447 84.0154 370.887 84.187 371.252C84.3585 371.618 84.602 371.897 84.9175 372.091C85.2329 372.285 85.6092 372.381 86.0464 372.381C86.4005 372.381 86.7021 372.329 86.9512 372.224C87.2002 372.118 87.3994 371.997 87.5488 371.858C87.7038 371.715 87.8089 371.584 87.8642 371.468L87.8891 371.418H90.147L90.1304 371.501C90.0584 371.789 89.9284 372.091 89.7402 372.406C89.5521 372.716 89.292 373.007 88.9599 373.278C88.6334 373.549 88.2239 373.77 87.7314 373.942C87.2444 374.108 86.6662 374.191 85.9966 374.191ZM91.7955 374V364.861H94.2194V366.272H94.3688C94.5791 365.774 94.9056 365.381 95.3483 365.093C95.791 364.806 96.3388 364.662 96.9918 364.662C98.0101 364.662 98.7848 364.96 99.3161 365.558C99.8528 366.15 100.121 366.994 100.121 368.09V374H97.6974V368.638C97.6974 367.99 97.5618 367.5 97.2907 367.168C97.0195 366.836 96.5962 366.67 96.0206 366.67C95.6499 366.67 95.3289 366.756 95.0578 366.928C94.7921 367.094 94.5846 367.329 94.4352 367.633C94.2913 367.938 94.2194 368.297 94.2194 368.712V374H91.7955ZM105.854 374.033C104.747 374.033 103.95 373.84 103.463 373.452C102.976 373.059 102.733 372.42 102.733 371.535V366.687H101.322V364.861H102.733V362.678H105.181V364.861H107.066V366.687H105.181V370.979C105.181 371.388 105.273 371.69 105.455 371.883C105.644 372.071 105.942 372.166 106.352 372.166C106.507 372.166 106.634 372.163 106.734 372.157C106.839 372.146 106.95 372.135 107.066 372.124V373.925C106.916 373.953 106.736 373.978 106.526 374C106.316 374.022 106.092 374.033 105.854 374.033ZM111.163 374.141C110.588 374.141 110.073 374.03 109.619 373.809C109.171 373.582 108.819 373.264 108.565 372.854C108.31 372.439 108.183 371.955 108.183 371.402V371.385C108.183 370.837 108.319 370.367 108.59 369.974C108.866 369.581 109.268 369.274 109.793 369.053C110.325 368.826 110.969 368.69 111.728 368.646L115.131 368.438V369.916L112.093 370.115C111.573 370.143 111.185 370.254 110.931 370.447C110.676 370.641 110.549 370.904 110.549 371.236V371.252C110.549 371.601 110.682 371.875 110.947 372.074C111.213 372.273 111.556 372.373 111.977 372.373C112.353 372.373 112.688 372.298 112.981 372.149C113.274 372 113.507 371.798 113.678 371.543C113.85 371.283 113.936 370.992 113.936 370.671V367.758C113.936 367.359 113.803 367.055 113.537 366.845C113.277 366.629 112.898 366.521 112.4 366.521C111.963 366.521 111.606 366.596 111.329 366.745C111.058 366.889 110.875 367.097 110.781 367.368L110.765 367.401H108.523L108.532 367.326C108.598 366.789 108.8 366.322 109.138 365.923C109.481 365.525 109.94 365.215 110.516 364.994C111.097 364.772 111.769 364.662 112.533 364.662C113.341 364.662 114.027 364.786 114.591 365.035C115.156 365.279 115.585 365.633 115.878 366.098C116.177 366.557 116.326 367.11 116.326 367.758V374H113.936V372.788H113.786C113.631 373.07 113.424 373.314 113.164 373.519C112.909 373.718 112.61 373.873 112.267 373.983C111.929 374.089 111.561 374.141 111.163 374.141ZM118.29 374V364.861H120.714V366.28H120.863C121.013 365.782 121.287 365.398 121.685 365.126C122.084 364.85 122.579 364.711 123.171 364.711C123.337 364.711 123.498 364.722 123.652 364.745C123.813 364.767 123.954 364.794 124.076 364.828V366.944C123.893 366.9 123.708 366.867 123.52 366.845C123.337 366.817 123.152 366.803 122.963 366.803C122.504 366.803 122.106 366.889 121.768 367.061C121.431 367.227 121.171 367.465 120.988 367.774C120.805 368.084 120.714 368.455 120.714 368.887V374H118.29ZM125.301 374V364.861H127.725V374H125.301ZM126.521 363.458C126.151 363.458 125.83 363.328 125.558 363.068C125.287 362.802 125.152 362.484 125.152 362.113C125.152 361.737 125.287 361.419 125.558 361.159C125.83 360.893 126.151 360.76 126.521 360.76C126.898 360.76 127.219 360.893 127.484 361.159C127.75 361.419 127.883 361.737 127.883 362.113C127.883 362.484 127.75 362.802 127.484 363.068C127.219 363.328 126.898 363.458 126.521 363.458ZM133.814 374.191C132.879 374.191 132.074 374.003 131.399 373.626C130.724 373.245 130.206 372.7 129.847 371.991C129.487 371.277 129.307 370.425 129.307 369.435V369.418C129.307 368.433 129.49 367.586 129.855 366.878C130.22 366.17 130.738 365.625 131.407 365.243C132.082 364.855 132.885 364.662 133.814 364.662C134.744 364.662 135.544 364.853 136.213 365.234C136.888 365.616 137.409 366.164 137.774 366.878C138.139 367.586 138.322 368.433 138.322 369.418V369.435C138.322 370.425 138.142 371.277 137.782 371.991C137.422 372.7 136.905 373.245 136.23 373.626C135.56 374.003 134.755 374.191 133.814 374.191ZM133.814 372.29C134.246 372.29 134.611 372.177 134.91 371.95C135.209 371.723 135.439 371.396 135.599 370.97C135.76 370.544 135.84 370.032 135.84 369.435V369.418C135.84 368.82 135.76 368.311 135.599 367.891C135.439 367.465 135.206 367.138 134.902 366.911C134.603 366.679 134.24 366.562 133.814 366.562C133.388 366.562 133.023 366.679 132.719 366.911C132.42 367.138 132.19 367.465 132.03 367.891C131.869 368.311 131.789 368.82 131.789 369.418V369.435C131.789 370.038 131.866 370.552 132.021 370.979C132.182 371.405 132.412 371.731 132.71 371.958C133.015 372.179 133.383 372.29 133.814 372.29ZM143.523 374.191C142.693 374.191 141.985 374.077 141.398 373.851C140.817 373.618 140.36 373.3 140.028 372.896C139.702 372.492 139.511 372.03 139.456 371.51L139.447 371.477H141.83L141.846 371.51C141.946 371.792 142.134 372.024 142.411 372.207C142.693 372.39 143.072 372.481 143.548 372.481C143.858 372.481 144.129 372.439 144.361 372.356C144.594 372.268 144.776 372.149 144.909 372C145.042 371.85 145.108 371.676 145.108 371.477V371.46C145.108 371.216 145.009 371.014 144.81 370.854C144.61 370.694 144.278 370.561 143.814 370.456L142.286 370.132C141.705 370.01 141.221 369.833 140.834 369.601C140.446 369.363 140.156 369.072 139.962 368.729C139.774 368.386 139.68 367.987 139.68 367.534V367.525C139.68 366.95 139.838 366.449 140.153 366.023C140.474 365.591 140.919 365.257 141.489 365.019C142.065 364.781 142.732 364.662 143.49 364.662C144.287 364.662 144.965 364.783 145.524 365.027C146.082 365.265 146.511 365.586 146.81 365.99C147.115 366.388 147.283 366.834 147.317 367.326V367.359H145.067L145.059 367.318C144.992 367.069 144.826 366.85 144.561 366.662C144.295 366.468 143.935 366.372 143.482 366.372C143.205 366.372 142.959 366.413 142.743 366.496C142.527 366.579 142.355 366.695 142.228 366.845C142.106 366.994 142.046 367.171 142.046 367.376V367.384C142.046 367.545 142.087 367.686 142.17 367.808C142.253 367.929 142.389 368.035 142.577 368.123C142.765 368.212 143.017 368.292 143.332 368.364L144.851 368.688C145.764 368.887 146.439 369.186 146.877 369.584C147.314 369.982 147.532 370.519 147.532 371.194V371.203C147.532 371.806 147.361 372.332 147.018 372.78C146.675 373.228 146.201 373.577 145.598 373.826C144.995 374.069 144.303 374.191 143.523 374.191ZM150.849 374.208C150.429 374.208 150.08 374.069 149.803 373.792C149.527 373.516 149.388 373.173 149.388 372.763C149.388 372.354 149.527 372.013 149.803 371.742C150.08 371.465 150.429 371.327 150.849 371.327C151.281 371.327 151.632 371.465 151.904 371.742C152.175 372.013 152.31 372.354 152.31 372.763C152.31 373.173 152.175 373.516 151.904 373.792C151.632 374.069 151.281 374.208 150.849 374.208ZM150.849 368.198C150.429 368.198 150.08 368.059 149.803 367.783C149.527 367.506 149.388 367.163 149.388 366.753C149.388 366.344 149.527 366.004 149.803 365.732C150.08 365.456 150.429 365.317 150.849 365.317C151.281 365.317 151.632 365.456 151.904 365.732C152.175 366.004 152.31 366.344 152.31 366.753C152.31 367.163 152.175 367.506 151.904 367.783C151.632 368.059 151.281 368.198 150.849 368.198ZM162.356 374L157.94 362.022H159.509L163.028 372.066H163.161L166.681 362.022H168.25L163.834 374H162.356ZM169.79 374V365.052H171.235V374H169.79ZM170.521 363.325C170.25 363.325 170.014 363.228 169.815 363.035C169.621 362.835 169.525 362.6 169.525 362.329C169.525 362.052 169.621 361.817 169.815 361.624C170.014 361.43 170.25 361.333 170.521 361.333C170.797 361.333 171.033 361.43 171.226 361.624C171.42 361.817 171.517 362.052 171.517 362.329C171.517 362.6 171.42 362.835 171.226 363.035C171.033 363.228 170.797 363.325 170.521 363.325ZM173.547 374V365.052H174.992V366.396H175.124C175.351 365.921 175.678 365.553 176.104 365.292C176.53 365.027 177.072 364.894 177.731 364.894C178.738 364.894 179.51 365.182 180.047 365.757C180.589 366.327 180.86 367.144 180.86 368.206V374H179.416V368.555C179.416 367.747 179.244 367.149 178.901 366.762C178.564 366.369 178.038 366.172 177.324 366.172C176.848 366.172 176.436 366.275 176.087 366.479C175.739 366.684 175.468 366.975 175.274 367.351C175.086 367.727 174.992 368.178 174.992 368.704V374H173.547ZM186.742 374.158C185.896 374.158 185.162 373.972 184.543 373.602C183.928 373.225 183.452 372.691 183.115 372C182.783 371.308 182.617 370.486 182.617 369.534V369.518C182.617 368.56 182.783 367.736 183.115 367.044C183.452 366.352 183.928 365.821 184.543 365.45C185.162 365.079 185.896 364.894 186.742 364.894C187.594 364.894 188.328 365.079 188.942 365.45C189.556 365.821 190.029 366.352 190.361 367.044C190.699 367.736 190.868 368.56 190.868 369.518V369.534C190.868 370.486 190.699 371.308 190.361 372C190.029 372.691 189.556 373.225 188.942 373.602C188.328 373.972 187.594 374.158 186.742 374.158ZM186.742 372.879C187.307 372.879 187.785 372.747 188.178 372.481C188.571 372.215 188.87 371.833 189.075 371.335C189.285 370.837 189.39 370.237 189.39 369.534V369.518C189.39 368.809 189.285 368.206 189.075 367.708C188.87 367.21 188.571 366.831 188.178 366.571C187.785 366.305 187.307 366.172 186.742 366.172C186.178 366.172 185.699 366.305 185.306 366.571C184.913 366.831 184.612 367.21 184.401 367.708C184.197 368.206 184.094 368.809 184.094 369.518V369.534C184.094 370.237 184.197 370.837 184.401 371.335C184.612 371.833 184.913 372.215 185.306 372.481C185.699 372.747 186.178 372.879 186.742 372.879ZM199.527 374.158C198.963 374.158 198.454 374.05 198 373.834C197.552 373.618 197.195 373.311 196.929 372.913C196.669 372.514 196.539 372.044 196.539 371.501V371.485C196.539 370.954 196.666 370.5 196.921 370.124C197.175 369.742 197.546 369.443 198.033 369.227C198.52 369.011 199.109 368.884 199.801 368.845L203.088 368.646V369.8L199.975 369.999C199.295 370.038 198.797 370.179 198.481 370.422C198.171 370.666 198.016 371.009 198.016 371.452V371.468C198.016 371.922 198.188 372.276 198.531 372.531C198.874 372.78 199.306 372.904 199.826 372.904C200.319 372.904 200.756 372.807 201.138 372.614C201.519 372.415 201.818 372.146 202.034 371.809C202.255 371.471 202.366 371.089 202.366 370.663V367.874C202.366 367.321 202.197 366.9 201.86 366.612C201.528 366.319 201.027 366.172 200.357 366.172C199.821 366.172 199.381 366.269 199.037 366.463C198.694 366.651 198.465 366.919 198.349 367.268L198.34 367.293H196.896L196.904 367.243C196.982 366.773 197.175 366.363 197.485 366.015C197.801 365.66 198.207 365.387 198.705 365.193C199.203 364.994 199.771 364.894 200.407 364.894C201.138 364.894 201.755 365.013 202.258 365.251C202.767 365.489 203.152 365.832 203.412 366.28C203.678 366.723 203.81 367.254 203.81 367.874V374H202.366V372.68H202.233C202.045 372.996 201.815 373.264 201.544 373.485C201.279 373.707 200.977 373.875 200.64 373.992C200.302 374.102 199.931 374.158 199.527 374.158ZM209.701 374.158C208.865 374.158 208.14 373.967 207.526 373.585C206.912 373.203 206.436 372.664 206.098 371.966C205.761 371.269 205.592 370.447 205.592 369.501V369.484C205.592 368.555 205.758 367.747 206.09 367.061C206.427 366.374 206.903 365.843 207.518 365.467C208.132 365.085 208.857 364.894 209.692 364.894C210.417 364.894 211.043 365.021 211.568 365.276C212.094 365.53 212.515 365.874 212.83 366.305C213.146 366.731 213.348 367.21 213.436 367.741L213.444 367.791H212.008L212 367.766C211.889 367.323 211.638 366.947 211.245 366.637C210.852 366.327 210.334 366.172 209.692 366.172C209.156 366.172 208.691 366.308 208.298 366.579C207.905 366.85 207.601 367.235 207.385 367.733C207.175 368.225 207.069 368.809 207.069 369.484V369.501C207.069 370.187 207.177 370.785 207.393 371.294C207.609 371.798 207.913 372.188 208.306 372.464C208.699 372.741 209.161 372.879 209.692 372.879C210.296 372.879 210.788 372.749 211.17 372.489C211.552 372.229 211.826 371.85 211.992 371.352L212.008 371.302L213.436 371.294L213.419 371.385C213.298 371.922 213.082 372.401 212.772 372.821C212.462 373.236 212.053 373.563 211.544 373.801C211.034 374.039 210.42 374.158 209.701 374.158ZM218.82 374.158C217.973 374.158 217.24 373.972 216.62 373.602C216.006 373.225 215.53 372.691 215.193 372C214.861 371.308 214.695 370.486 214.695 369.534V369.518C214.695 368.56 214.861 367.736 215.193 367.044C215.53 366.352 216.006 365.821 216.62 365.45C217.24 365.079 217.973 364.894 218.82 364.894C219.672 364.894 220.405 365.079 221.02 365.45C221.634 365.821 222.107 366.352 222.439 367.044C222.777 367.736 222.946 368.56 222.946 369.518V369.534C222.946 370.486 222.777 371.308 222.439 372C222.107 372.691 221.634 373.225 221.02 373.602C220.405 373.972 219.672 374.158 218.82 374.158ZM218.82 372.879C219.384 372.879 219.863 372.747 220.256 372.481C220.649 372.215 220.948 371.833 221.153 371.335C221.363 370.837 221.468 370.237 221.468 369.534V369.518C221.468 368.809 221.363 368.206 221.153 367.708C220.948 367.21 220.649 366.831 220.256 366.571C219.863 366.305 219.384 366.172 218.82 366.172C218.256 366.172 217.777 366.305 217.384 366.571C216.991 366.831 216.689 367.21 216.479 367.708C216.274 368.206 216.172 368.809 216.172 369.518V369.534C216.172 370.237 216.274 370.837 216.479 371.335C216.689 371.833 216.991 372.215 217.384 372.481C217.777 372.747 218.256 372.879 218.82 372.879ZM224.777 374V365.052H226.221V366.413H226.354C226.553 365.932 226.857 365.558 227.267 365.292C227.682 365.027 228.183 364.894 228.769 364.894C229.173 364.894 229.536 364.96 229.857 365.093C230.178 365.226 230.454 365.411 230.687 365.649C230.919 365.882 231.105 366.153 231.243 366.463H231.376C231.536 366.147 231.752 365.874 232.023 365.641C232.294 365.403 232.607 365.221 232.961 365.093C233.321 364.96 233.706 364.894 234.115 364.894C234.724 364.894 235.238 365.007 235.659 365.234C236.085 365.461 236.409 365.793 236.63 366.23C236.852 366.662 236.962 367.191 236.962 367.816V374H235.518V368.148C235.518 367.705 235.449 367.34 235.31 367.052C235.178 366.759 234.973 366.54 234.696 366.396C234.419 366.247 234.071 366.172 233.65 366.172C233.235 366.172 232.873 366.266 232.563 366.455C232.253 366.643 232.012 366.895 231.841 367.21C231.669 367.52 231.583 367.866 231.583 368.248V374H230.139V367.924C230.139 367.57 230.062 367.263 229.907 367.002C229.757 366.737 229.541 366.532 229.259 366.388C228.982 366.244 228.656 366.172 228.28 366.172C227.892 366.172 227.541 366.275 227.225 366.479C226.916 366.684 226.669 366.961 226.487 367.31C226.31 367.653 226.221 368.035 226.221 368.455V374H224.777ZM239.159 376.988V365.052H240.603V366.479H240.736C240.918 366.147 241.148 365.865 241.425 365.633C241.702 365.395 242.017 365.212 242.371 365.085C242.725 364.958 243.11 364.894 243.525 364.894C244.283 364.894 244.942 365.088 245.501 365.475C246.065 365.857 246.502 366.394 246.812 367.085C247.122 367.777 247.277 368.588 247.277 369.518V369.534C247.277 370.469 247.122 371.283 246.812 371.975C246.502 372.666 246.065 373.203 245.501 373.585C244.942 373.967 244.283 374.158 243.525 374.158C243.115 374.158 242.728 374.094 242.363 373.967C242.003 373.834 241.682 373.651 241.4 373.419C241.123 373.187 240.902 372.91 240.736 372.589H240.603V376.988H239.159ZM243.193 372.879C243.741 372.879 244.208 372.747 244.596 372.481C244.983 372.21 245.279 371.825 245.484 371.327C245.694 370.824 245.799 370.226 245.799 369.534V369.518C245.799 368.82 245.694 368.223 245.484 367.725C245.279 367.227 244.983 366.845 244.596 366.579C244.208 366.308 243.741 366.172 243.193 366.172C242.651 366.172 242.183 366.308 241.79 366.579C241.397 366.85 241.096 367.235 240.885 367.733C240.675 368.231 240.57 368.826 240.57 369.518V369.534C240.57 370.22 240.675 370.815 240.885 371.319C241.096 371.817 241.397 372.201 241.79 372.473C242.183 372.744 242.651 372.879 243.193 372.879ZM251.582 374.158C251.017 374.158 250.508 374.05 250.054 373.834C249.606 373.618 249.249 373.311 248.984 372.913C248.723 372.514 248.593 372.044 248.593 371.501V371.485C248.593 370.954 248.721 370.5 248.975 370.124C249.23 369.742 249.601 369.443 250.088 369.227C250.575 369.011 251.164 368.884 251.856 368.845L255.143 368.646V369.8L252.03 369.999C251.349 370.038 250.851 370.179 250.536 370.422C250.226 370.666 250.071 371.009 250.071 371.452V371.468C250.071 371.922 250.243 372.276 250.586 372.531C250.929 372.78 251.36 372.904 251.881 372.904C252.373 372.904 252.81 372.807 253.192 372.614C253.574 372.415 253.873 372.146 254.089 371.809C254.31 371.471 254.421 371.089 254.421 370.663V367.874C254.421 367.321 254.252 366.9 253.914 366.612C253.582 366.319 253.081 366.172 252.412 366.172C251.875 366.172 251.435 366.269 251.092 366.463C250.749 366.651 250.519 366.919 250.403 367.268L250.395 367.293H248.95L248.959 367.243C249.036 366.773 249.23 366.363 249.54 366.015C249.855 365.66 250.262 365.387 250.76 365.193C251.258 364.994 251.825 364.894 252.462 364.894C253.192 364.894 253.809 365.013 254.313 365.251C254.822 365.489 255.206 365.832 255.466 366.28C255.732 366.723 255.865 367.254 255.865 367.874V374H254.421V372.68H254.288C254.1 372.996 253.87 373.264 253.599 373.485C253.333 373.707 253.032 373.875 252.694 373.992C252.356 374.102 251.986 374.158 251.582 374.158ZM258.095 374V365.052H259.539V366.396H259.672C259.899 365.921 260.225 365.553 260.651 365.292C261.077 365.027 261.62 364.894 262.278 364.894C263.285 364.894 264.057 365.182 264.594 365.757C265.136 366.327 265.408 367.144 265.408 368.206V374H263.963V368.555C263.963 367.747 263.792 367.149 263.449 366.762C263.111 366.369 262.585 366.172 261.871 366.172C261.396 366.172 260.983 366.275 260.635 366.479C260.286 366.684 260.015 366.975 259.821 367.351C259.633 367.727 259.539 368.178 259.539 368.704V374H258.095ZM262.984 363.749C262.663 363.749 262.383 363.677 262.145 363.533C261.913 363.389 261.683 363.203 261.456 362.977L261.365 362.885C261.21 362.73 261.08 362.625 260.975 362.57C260.875 362.514 260.77 362.487 260.66 362.487C260.46 362.487 260.305 362.592 260.195 362.802C260.084 363.007 260.029 363.322 260.029 363.749V363.782H258.867V363.69C258.867 362.977 259.01 362.415 259.298 362.005C259.586 361.596 259.995 361.391 260.527 361.391C260.848 361.391 261.124 361.463 261.357 361.607C261.595 361.751 261.827 361.936 262.054 362.163L262.145 362.254C262.3 362.409 262.428 362.514 262.527 362.57C262.632 362.625 262.74 362.653 262.851 362.653C263.05 362.653 263.205 362.548 263.316 362.337C263.426 362.127 263.482 361.812 263.482 361.391V361.358H264.644V361.449C264.644 362.163 264.5 362.725 264.212 363.134C263.924 363.544 263.515 363.749 262.984 363.749ZM270.069 374.158C269.505 374.158 268.996 374.05 268.542 373.834C268.094 373.618 267.737 373.311 267.471 372.913C267.211 372.514 267.081 372.044 267.081 371.501V371.485C267.081 370.954 267.208 370.5 267.463 370.124C267.717 369.742 268.088 369.443 268.575 369.227C269.062 369.011 269.652 368.884 270.343 368.845L273.63 368.646V369.8L270.518 369.999C269.837 370.038 269.339 370.179 269.023 370.422C268.714 370.666 268.559 371.009 268.559 371.452V371.468C268.559 371.922 268.73 372.276 269.073 372.531C269.416 372.78 269.848 372.904 270.368 372.904C270.861 372.904 271.298 372.807 271.68 372.614C272.062 372.415 272.36 372.146 272.576 371.809C272.798 371.471 272.908 371.089 272.908 370.663V367.874C272.908 367.321 272.739 366.9 272.402 366.612C272.07 366.319 271.569 366.172 270.899 366.172C270.363 366.172 269.923 366.269 269.58 366.463C269.236 366.651 269.007 366.919 268.891 367.268L268.882 367.293H267.438L267.446 367.243C267.524 366.773 267.717 366.363 268.027 366.015C268.343 365.66 268.75 365.387 269.248 365.193C269.746 364.994 270.313 364.894 270.949 364.894C271.68 364.894 272.297 365.013 272.8 365.251C273.309 365.489 273.694 365.832 273.954 366.28C274.22 366.723 274.353 367.254 274.353 367.874V374H272.908V372.68H272.775C272.587 372.996 272.358 373.264 272.086 373.485C271.821 373.707 271.519 373.875 271.182 373.992C270.844 374.102 270.473 374.158 270.069 374.158ZM279.886 374.158C279.133 374.158 278.475 373.967 277.91 373.585C277.346 373.203 276.909 372.666 276.599 371.975C276.289 371.277 276.134 370.464 276.134 369.534V369.518C276.134 368.582 276.289 367.769 276.599 367.077C276.909 366.385 277.343 365.849 277.902 365.467C278.466 365.085 279.128 364.894 279.886 364.894C280.295 364.894 280.68 364.96 281.04 365.093C281.405 365.221 281.729 365.4 282.011 365.633C282.293 365.865 282.514 366.142 282.675 366.463H282.808V361.499H284.252V374H282.808V372.572H282.675C282.492 372.904 282.263 373.189 281.986 373.427C281.709 373.66 281.394 373.84 281.04 373.967C280.686 374.094 280.301 374.158 279.886 374.158ZM280.218 372.879C280.76 372.879 281.228 372.744 281.621 372.473C282.014 372.201 282.315 371.817 282.526 371.319C282.736 370.815 282.841 370.22 282.841 369.534V369.518C282.841 368.826 282.736 368.231 282.526 367.733C282.315 367.235 282.014 366.85 281.621 366.579C281.228 366.308 280.76 366.172 280.218 366.172C279.676 366.172 279.208 366.308 278.815 366.579C278.428 366.845 278.129 367.227 277.919 367.725C277.714 368.223 277.611 368.82 277.611 369.518V369.534C277.611 370.226 277.714 370.824 277.919 371.327C278.129 371.825 278.428 372.21 278.815 372.481C279.208 372.747 279.676 372.879 280.218 372.879ZM289.072 374.158C288.507 374.158 287.998 374.05 287.544 373.834C287.096 373.618 286.739 373.311 286.473 372.913C286.213 372.514 286.083 372.044 286.083 371.501V371.485C286.083 370.954 286.211 370.5 286.465 370.124C286.72 369.742 287.09 369.443 287.577 369.227C288.064 369.011 288.654 368.884 289.346 368.845L292.633 368.646V369.8L289.52 369.999C288.839 370.038 288.341 370.179 288.026 370.422C287.716 370.666 287.561 371.009 287.561 371.452V371.468C287.561 371.922 287.732 372.276 288.076 372.531C288.419 372.78 288.85 372.904 289.37 372.904C289.863 372.904 290.3 372.807 290.682 372.614C291.064 372.415 291.363 372.146 291.578 371.809C291.8 371.471 291.91 371.089 291.91 370.663V367.874C291.91 367.321 291.742 366.9 291.404 366.612C291.072 366.319 290.571 366.172 289.902 366.172C289.365 366.172 288.925 366.269 288.582 366.463C288.239 366.651 288.009 366.919 287.893 367.268L287.885 367.293H286.44L286.449 367.243C286.526 366.773 286.72 366.363 287.03 366.015C287.345 365.66 287.752 365.387 288.25 365.193C288.748 364.994 289.315 364.894 289.951 364.894C290.682 364.894 291.299 365.013 291.803 365.251C292.312 365.489 292.696 365.832 292.956 366.28C293.222 366.723 293.355 367.254 293.355 367.874V374H291.91V372.68H291.778C291.589 372.996 291.36 373.264 291.089 373.485C290.823 373.707 290.521 373.875 290.184 373.992C289.846 374.102 289.476 374.158 289.072 374.158ZM303.616 374.158C302.781 374.158 302.056 373.967 301.442 373.585C300.827 373.203 300.351 372.664 300.014 371.966C299.676 371.269 299.507 370.447 299.507 369.501V369.484C299.507 368.555 299.673 367.747 300.006 367.061C300.343 366.374 300.819 365.843 301.433 365.467C302.048 365.085 302.772 364.894 303.608 364.894C304.333 364.894 304.958 365.021 305.484 365.276C306.01 365.53 306.43 365.874 306.746 366.305C307.061 366.731 307.263 367.21 307.352 367.741L307.36 367.791H305.924L305.916 367.766C305.805 367.323 305.553 366.947 305.16 366.637C304.767 366.327 304.25 366.172 303.608 366.172C303.071 366.172 302.606 366.308 302.214 366.579C301.821 366.85 301.516 367.235 301.3 367.733C301.09 368.225 300.985 368.809 300.985 369.484V369.501C300.985 370.187 301.093 370.785 301.309 371.294C301.525 371.798 301.829 372.188 302.222 372.464C302.615 372.741 303.077 372.879 303.608 372.879C304.211 372.879 304.704 372.749 305.086 372.489C305.467 372.229 305.741 371.85 305.907 371.352L305.924 371.302L307.352 371.294L307.335 371.385C307.213 371.922 306.998 372.401 306.688 372.821C306.378 373.236 305.968 373.563 305.459 373.801C304.95 374.039 304.336 374.158 303.616 374.158ZM312.736 374.158C311.889 374.158 311.156 373.972 310.536 373.602C309.922 373.225 309.446 372.691 309.108 372C308.776 371.308 308.61 370.486 308.61 369.534V369.518C308.61 368.56 308.776 367.736 309.108 367.044C309.446 366.352 309.922 365.821 310.536 365.45C311.156 365.079 311.889 364.894 312.736 364.894C313.588 364.894 314.321 365.079 314.935 365.45C315.55 365.821 316.023 366.352 316.355 367.044C316.692 367.736 316.861 368.56 316.861 369.518V369.534C316.861 370.486 316.692 371.308 316.355 372C316.023 372.691 315.55 373.225 314.935 373.602C314.321 373.972 313.588 374.158 312.736 374.158ZM312.736 372.879C313.3 372.879 313.779 372.747 314.172 372.481C314.565 372.215 314.863 371.833 315.068 371.335C315.278 370.837 315.384 370.237 315.384 369.534V369.518C315.384 368.809 315.278 368.206 315.068 367.708C314.863 367.21 314.565 366.831 314.172 366.571C313.779 366.305 313.3 366.172 312.736 366.172C312.171 366.172 311.693 366.305 311.3 366.571C310.907 366.831 310.605 367.21 310.395 367.708C310.19 368.206 310.088 368.809 310.088 369.518V369.534C310.088 370.237 310.19 370.837 310.395 371.335C310.605 371.833 310.907 372.215 311.3 372.481C311.693 372.747 312.171 372.879 312.736 372.879ZM318.692 374V365.052H320.137V366.396H320.27C320.496 365.921 320.823 365.553 321.249 365.292C321.675 365.027 322.217 364.894 322.876 364.894C323.883 364.894 324.655 365.182 325.192 365.757C325.734 366.327 326.005 367.144 326.005 368.206V374H324.561V368.555C324.561 367.747 324.389 367.149 324.046 366.762C323.709 366.369 323.183 366.172 322.469 366.172C321.993 366.172 321.581 366.275 321.232 366.479C320.884 366.684 320.613 366.975 320.419 367.351C320.231 367.727 320.137 368.178 320.137 368.704V374H318.692ZM332.764 374V362.022H340.185V363.367H334.258V367.21H339.878V368.538H334.258V372.655H340.185V374H332.764ZM342.381 374V361.499H343.826V374H342.381ZM346.221 374V365.052H347.666V374H346.221ZM347.5 363.807H346.238L347.707 360.984H349.417L347.5 363.807ZM352.435 374.158C351.871 374.158 351.362 374.05 350.908 373.834C350.46 373.618 350.103 373.311 349.837 372.913C349.577 372.514 349.447 372.044 349.447 371.501V371.485C349.447 370.954 349.574 370.5 349.829 370.124C350.083 369.742 350.454 369.443 350.941 369.227C351.428 369.011 352.017 368.884 352.709 368.845L355.996 368.646V369.8L352.884 369.999C352.203 370.038 351.705 370.179 351.389 370.422C351.08 370.666 350.925 371.009 350.925 371.452V371.468C350.925 371.922 351.096 372.276 351.439 372.531C351.782 372.78 352.214 372.904 352.734 372.904C353.227 372.904 353.664 372.807 354.046 372.614C354.427 372.415 354.726 372.146 354.942 371.809C355.163 371.471 355.274 371.089 355.274 370.663V367.874C355.274 367.321 355.105 366.9 354.768 366.612C354.436 366.319 353.935 366.172 353.265 366.172C352.729 366.172 352.289 366.269 351.946 366.463C351.602 366.651 351.373 366.919 351.257 367.268L351.248 367.293H349.804L349.812 367.243C349.89 366.773 350.083 366.363 350.393 366.015C350.709 365.66 351.115 365.387 351.614 365.193C352.112 364.994 352.679 364.894 353.315 364.894C354.046 364.894 354.663 365.013 355.166 365.251C355.675 365.489 356.06 365.832 356.32 366.28C356.586 366.723 356.719 367.254 356.719 367.874V374H355.274V372.68H355.141C354.953 372.996 354.724 373.264 354.452 373.485C354.187 373.707 353.885 373.875 353.548 373.992C353.21 374.102 352.839 374.158 352.435 374.158ZM362.019 374.158C361.355 374.158 360.769 374.058 360.26 373.859C359.751 373.654 359.341 373.369 359.031 373.004C358.727 372.639 358.547 372.21 358.492 371.717H359.969C360.091 372.088 360.329 372.387 360.683 372.614C361.037 372.841 361.499 372.954 362.069 372.954C362.473 372.954 362.827 372.896 363.132 372.78C363.442 372.658 363.685 372.495 363.862 372.29C364.039 372.08 364.128 371.839 364.128 371.568V371.551C364.128 371.247 364.006 370.99 363.763 370.779C363.519 370.563 363.121 370.389 362.567 370.256L361.181 369.924C360.622 369.792 360.163 369.62 359.803 369.41C359.443 369.194 359.178 368.931 359.006 368.621C358.835 368.306 358.749 367.935 358.749 367.509V367.5C358.749 367.002 358.893 366.557 359.181 366.164C359.474 365.771 359.872 365.461 360.376 365.234C360.879 365.007 361.447 364.894 362.078 364.894C362.703 364.894 363.256 364.994 363.738 365.193C364.225 365.387 364.615 365.663 364.908 366.023C365.207 366.383 365.39 366.806 365.456 367.293H364.037C363.942 366.939 363.727 366.651 363.389 366.43C363.052 366.208 362.612 366.098 362.069 366.098C361.715 366.098 361.4 366.156 361.123 366.272C360.846 366.383 360.628 366.538 360.467 366.737C360.307 366.936 360.226 367.168 360.226 367.434V367.451C360.226 367.65 360.279 367.827 360.384 367.982C360.489 368.137 360.653 368.272 360.874 368.389C361.095 368.505 361.38 368.607 361.729 368.696L363.107 369.028C363.948 369.233 364.573 369.526 364.983 369.908C365.398 370.29 365.605 370.801 365.605 371.443V371.46C365.605 371.991 365.448 372.462 365.132 372.871C364.817 373.275 364.388 373.59 363.846 373.817C363.309 374.044 362.7 374.158 362.019 374.158ZM375.917 374.282C375.042 374.282 374.279 374.141 373.626 373.859C372.978 373.571 372.464 373.178 372.082 372.68C371.705 372.177 371.487 371.601 371.426 370.954L371.418 370.862H372.912L372.92 370.954C372.959 371.352 373.111 371.698 373.377 371.991C373.648 372.279 374.008 372.503 374.456 372.664C374.91 372.824 375.424 372.904 376 372.904C376.542 372.904 377.024 372.819 377.444 372.647C377.87 372.47 378.205 372.226 378.448 371.917C378.692 371.607 378.814 371.25 378.814 370.846V370.837C378.814 370.339 378.631 369.922 378.266 369.584C377.901 369.241 377.306 368.978 376.481 368.795L375.153 368.505C373.952 368.239 373.078 367.83 372.53 367.276C371.988 366.717 371.717 366.004 371.717 365.135V365.126C371.722 364.462 371.902 363.876 372.256 363.367C372.616 362.858 373.111 362.459 373.742 362.171C374.378 361.884 375.109 361.74 375.933 361.74C376.73 361.74 377.436 361.884 378.05 362.171C378.664 362.454 379.151 362.835 379.511 363.317C379.876 363.798 380.078 364.338 380.117 364.936L380.125 365.052H378.631L378.615 364.944C378.559 364.59 378.415 364.277 378.183 364.006C377.95 363.729 377.641 363.511 377.253 363.35C376.866 363.19 376.412 363.112 375.892 363.118C375.394 363.118 374.946 363.195 374.547 363.35C374.149 363.505 373.83 363.729 373.593 364.022C373.36 364.31 373.244 364.664 373.244 365.085V365.093C373.244 365.569 373.421 365.97 373.775 366.297C374.129 366.623 374.713 366.875 375.527 367.052L376.855 367.351C377.69 367.534 378.363 367.772 378.872 368.065C379.381 368.358 379.752 368.718 379.984 369.144C380.222 369.565 380.341 370.063 380.341 370.638V370.646C380.341 371.394 380.158 372.038 379.793 372.581C379.428 373.123 378.913 373.543 378.249 373.842C377.585 374.136 376.808 374.282 375.917 374.282ZM383.417 374.083C383.124 374.083 382.87 373.978 382.654 373.768C382.443 373.552 382.338 373.297 382.338 373.004C382.338 372.705 382.443 372.451 382.654 372.24C382.87 372.03 383.124 371.925 383.417 371.925C383.716 371.925 383.971 372.03 384.181 372.24C384.391 372.451 384.496 372.705 384.496 373.004C384.496 373.297 384.391 373.552 384.181 373.768C383.971 373.978 383.716 374.083 383.417 374.083Z" fill="black"/>
<g clip-path="url(#clip4_26_3920)">
<path fill-rule="evenodd" clip-rule="evenodd" d="M43 389H402V390H43V389Z" fill="#E5E5EA"/>
</g>
</g>
<defs>
<clipPath id="clip0_26_3920">
<rect width="430" height="932" fill="white"/>
</clipPath>
<clipPath id="clip1_26_3920">
<rect width="430" height="45" fill="white" transform="translate(0 52)"/>
</clipPath>
<clipPath id="clip2_26_3920">
<rect width="375" height="1" fill="white" transform="translate(27 299)"/>
</clipPath>
<clipPath id="clip3_26_3920">
<rect width="375" height="1" fill="white" transform="translate(27 344)"/>
</clipPath>
<clipPath id="clip4_26_3920">
<rect width="375" height="1" fill="white" transform="translate(27 389)"/>
</clipPath>
</defs>
</svg>
