<svg width="430" height="932" viewBox="0 0 430 932" fill="none" xmlns="http://www.w3.org/2000/svg">
<g clip-path="url(#clip0_26_4961)">
<rect width="430" height="932" fill="#FDFDFD"/>
<rect width="430" height="52" fill="white" fill-opacity="0.08"/>
<rect opacity="0.35" x="381.833" y="21.833" width="21" height="10.3333" rx="2.16667" stroke="#3C3C43" stroke-opacity="0.6"/>
<path opacity="0.4" d="M404.333 24.9995V28.9995C405.138 28.6607 405.661 27.8726 405.661 26.9995C405.661 26.1264 405.138 25.3383 404.333 24.9995Z" fill="#3C3C43" fill-opacity="0.6"/>
<rect x="383.333" y="23.333" width="18" height="7.33333" rx="1.33333" fill="black"/>
<path fill-rule="evenodd" clip-rule="evenodd" d="M368.667 23.615C370.892 23.6151 373.031 24.4693 374.644 26.0008C374.765 26.1191 374.959 26.1176 375.079 25.9975L376.239 24.8272C376.3 24.7663 376.334 24.6837 376.333 24.5979C376.333 24.5121 376.298 24.4299 376.237 24.3697C372.005 20.3175 365.329 20.3175 361.097 24.3697C361.035 24.4299 361.001 24.512 361 24.5978C360.999 24.6837 361.033 24.7662 361.094 24.8272L362.255 25.9975C362.374 26.1178 362.568 26.1193 362.69 26.0008C364.302 24.4692 366.442 23.615 368.667 23.615ZM368.667 27.4226C369.889 27.4226 371.068 27.8765 371.974 28.6963C372.097 28.8126 372.29 28.8101 372.409 28.6906L373.569 27.5203C373.63 27.4589 373.663 27.3756 373.663 27.2891C373.662 27.2025 373.626 27.12 373.564 27.0598C370.805 24.4954 366.532 24.4954 363.773 27.0598C363.71 27.12 363.675 27.2026 363.674 27.2891C363.673 27.3757 363.707 27.459 363.768 27.5203L364.927 28.6906C365.047 28.8101 365.24 28.8126 365.362 28.6963C366.268 27.877 367.446 27.4231 368.667 27.4226ZM370.989 29.9845C370.991 30.0712 370.957 30.1549 370.895 30.2157L368.89 32.2377C368.831 32.2971 368.751 32.3306 368.667 32.3306C368.583 32.3306 368.503 32.2971 368.445 32.2377L366.439 30.2157C366.377 30.1549 366.343 30.0712 366.345 29.9844C366.347 29.8976 366.384 29.8154 366.449 29.7573C367.729 28.675 369.605 28.675 370.886 29.7573C370.95 29.8155 370.988 29.8977 370.989 29.9845Z" fill="black"/>
<path fill-rule="evenodd" clip-rule="evenodd" d="M355 21.6665H354C353.448 21.6665 353 22.1142 353 22.6665V31.3332C353 31.8855 353.448 32.3332 354 32.3332H355C355.552 32.3332 356 31.8855 356 31.3332V22.6665C356 22.1142 355.552 21.6665 355 21.6665ZM349.333 23.9998H350.333C350.886 23.9998 351.333 24.4476 351.333 24.9998V31.3332C351.333 31.8855 350.886 32.3332 350.333 32.3332H349.333C348.781 32.3332 348.333 31.8855 348.333 31.3332V24.9998C348.333 24.4476 348.781 23.9998 349.333 23.9998ZM345.667 26.3332H344.667C344.114 26.3332 343.667 26.7809 343.667 27.3332V31.3332C343.667 31.8855 344.114 32.3332 344.667 32.3332H345.667C346.219 32.3332 346.667 31.8855 346.667 31.3332V27.3332C346.667 26.7809 346.219 26.3332 345.667 26.3332ZM341 28.3332H340C339.448 28.3332 339 28.7809 339 29.3332V31.3332C339 31.8855 339.448 32.3332 340 32.3332H341C341.552 32.3332 342 31.8855 342 31.3332V29.3332C342 28.7809 341.552 28.3332 341 28.3332Z" fill="black"/>
<path d="M39.0411 20.6631C41.2149 20.6631 43.0264 22.1875 43.0264 25.6465V25.6602C43.0264 28.9209 41.5157 30.8691 39.0001 30.8691C37.1749 30.8691 35.8077 29.8164 35.5001 28.3262L35.4864 28.251H37.2364L37.2569 28.3125C37.5235 28.9893 38.1251 29.4268 39.0069 29.4268C40.5929 29.4268 41.2559 27.9092 41.3243 26.043C41.3311 25.9404 41.338 25.8379 41.338 25.7285H41.297C40.9073 26.6309 39.9229 27.3145 38.5899 27.3145C36.6895 27.3145 35.3497 25.9473 35.3497 24.0947V24.0811C35.3497 22.0918 36.9151 20.6631 39.0411 20.6631ZM39.0411 25.9541C40.169 25.9541 41.0304 25.1611 41.0304 24.0605V24.0537C41.0304 22.96 40.169 22.1055 39.0616 22.1055C37.9679 22.1055 37.086 22.9531 37.086 24.0195V24.0332C37.086 25.1543 37.92 25.9541 39.0411 25.9541ZM44.9476 24.2451C44.3939 24.2451 43.9564 23.8076 43.9564 23.2539C43.9564 22.7002 44.3939 22.2695 44.9476 22.2695C45.5013 22.2695 45.932 22.7002 45.932 23.2539C45.932 23.8076 45.5013 24.2451 44.9476 24.2451ZM44.9476 29.2627C44.3939 29.2627 43.9564 28.8252 43.9564 28.2715C43.9564 27.7178 44.3939 27.2871 44.9476 27.2871C45.5013 27.2871 45.932 27.7178 45.932 28.2715C45.932 28.8252 45.5013 29.2627 44.9476 29.2627ZM51.7155 30.6982V28.8047H46.7936V27.3008L50.8883 20.834H53.3971V27.3555H54.737V28.8047H53.3971V30.6982H51.7155ZM48.3795 27.3965H51.7428V22.167H51.7018L48.3795 27.3486V27.3965ZM58.0322 30.6982V22.5156H57.9911L55.4413 24.2656V22.6455L58.0185 20.834H59.7616V30.6982H58.0322Z" fill="black"/>
<path d="M20.5156 124.446V120.528H26.3926C27.8314 120.528 28.9492 120.163 29.7461 119.433C30.554 118.691 30.958 117.64 30.958 116.278V116.245C30.958 114.884 30.554 113.838 29.7461 113.107C28.9492 112.377 27.8314 112.012 26.3926 112.012H20.5156V108.044H27.6211C29.3034 108.044 30.7754 108.387 32.0371 109.073C33.2988 109.748 34.2783 110.7 34.9756 111.929C35.6839 113.157 36.0381 114.59 36.0381 116.229V116.262C36.0381 117.911 35.6839 119.35 34.9756 120.578C34.2783 121.807 33.2988 122.758 32.0371 123.434C30.7754 124.109 29.3034 124.446 27.6211 124.446H20.5156ZM17.9922 132V108.044H23.0059V132H17.9922ZM38.1947 132V114.203H43.0424V117.308H43.142C43.4076 116.212 43.8891 115.36 44.5863 114.751C45.2836 114.142 46.1524 113.838 47.1928 113.838C47.4584 113.838 47.713 113.854 47.9564 113.888C48.1999 113.921 48.4102 113.965 48.5873 114.021V118.287C48.3881 118.21 48.1335 118.149 47.8236 118.104C47.5137 118.049 47.1817 118.021 46.8275 118.021C46.0307 118.021 45.35 118.176 44.7855 118.486C44.2211 118.796 43.7895 119.25 43.4906 119.848C43.1918 120.445 43.0424 121.176 43.0424 122.039V132H38.1947ZM57.7166 132.365C55.9015 132.365 54.341 131.994 53.035 131.253C51.729 130.5 50.7218 129.432 50.0135 128.049C49.3162 126.665 48.9676 125.027 48.9676 123.135V123.118C48.9676 121.226 49.3162 119.588 50.0135 118.204C50.7218 116.81 51.7124 115.736 52.9852 114.983C54.269 114.22 55.7798 113.838 57.5174 113.838C59.255 113.838 60.7547 114.209 62.0164 114.95C63.2892 115.681 64.2687 116.715 64.9549 118.055C65.6521 119.394 66.0008 120.96 66.0008 122.753V124.247H51.3416V121.192H63.7098L61.4021 124.048V122.188C61.4021 121.148 61.2417 120.279 60.9207 119.582C60.5997 118.874 60.1515 118.342 59.576 117.988C59.0115 117.634 58.353 117.457 57.6004 117.457C56.8478 117.457 56.1782 117.64 55.5916 118.005C55.0161 118.37 54.5623 118.907 54.2303 119.615C53.9093 120.312 53.7488 121.17 53.7488 122.188V124.064C53.7488 125.049 53.9093 125.891 54.2303 126.588C54.5623 127.285 55.0327 127.822 55.6414 128.198C56.2501 128.563 56.9751 128.746 57.8162 128.746C58.4803 128.746 59.0558 128.641 59.5428 128.431C60.0298 128.22 60.4282 127.955 60.7381 127.634C61.048 127.313 61.2583 126.986 61.3689 126.654L61.4021 126.555H65.8514L65.8016 126.737C65.6688 127.39 65.4087 128.049 65.0213 128.713C64.6339 129.377 64.1082 129.986 63.4441 130.539C62.7911 131.092 61.9887 131.535 61.0369 131.867C60.0962 132.199 58.9894 132.365 57.7166 132.365ZM76.2424 132.365C74.4383 132.365 72.8778 131.989 71.5607 131.236C70.2437 130.484 69.231 129.416 68.5227 128.032C67.8143 126.638 67.4602 124.989 67.4602 123.085V123.068C67.4602 121.165 67.8143 119.527 68.5227 118.154C69.2421 116.771 70.2548 115.708 71.5607 114.967C72.8778 114.214 74.4217 113.838 76.1926 113.838C77.8085 113.838 79.2085 114.142 80.3928 114.751C81.577 115.349 82.5012 116.162 83.1652 117.191C83.8404 118.221 84.2111 119.377 84.2775 120.661V120.777H79.7785L79.7453 120.628C79.6014 119.776 79.2362 119.067 78.6496 118.503C78.063 117.927 77.2661 117.64 76.259 117.64C75.4732 117.64 74.787 117.861 74.2004 118.304C73.6249 118.735 73.1766 119.361 72.8557 120.18C72.5458 120.988 72.3908 121.956 72.3908 123.085V123.102C72.3908 124.264 72.5458 125.254 72.8557 126.073C73.1766 126.881 73.6249 127.501 74.2004 127.933C74.787 128.353 75.4787 128.563 76.2756 128.563C77.2495 128.563 78.0298 128.292 78.6164 127.75C79.2141 127.197 79.5959 126.472 79.7619 125.575L79.7785 125.426H84.2941V125.525C84.2167 126.82 83.8404 127.982 83.1652 129.012C82.4901 130.041 81.5604 130.86 80.3762 131.469C79.203 132.066 77.8251 132.365 76.2424 132.365ZM91.5309 132.282C90.3466 132.282 89.3063 132.055 88.4098 131.602C87.5133 131.137 86.8105 130.5 86.3014 129.692C85.8033 128.873 85.5543 127.944 85.5543 126.903V126.87C85.5543 125.785 85.8255 124.861 86.3678 124.098C86.9101 123.323 87.6959 122.714 88.7252 122.271C89.7545 121.829 91.0051 121.558 92.4771 121.458L99.4166 121.026V124.048L93.2076 124.446C92.2779 124.502 91.5696 124.723 91.0826 125.11C90.5956 125.487 90.3521 125.99 90.3521 126.621V126.654C90.3521 127.307 90.6012 127.822 91.0992 128.198C91.5973 128.563 92.2669 128.746 93.108 128.746C93.8274 128.746 94.4693 128.608 95.0338 128.331C95.6093 128.043 96.0576 127.656 96.3785 127.169C96.7105 126.671 96.8766 126.112 96.8766 125.492V120.097C96.8766 119.311 96.6275 118.691 96.1295 118.237C95.6314 117.772 94.9065 117.54 93.9547 117.54C93.0471 117.54 92.3277 117.728 91.7965 118.104C91.2652 118.481 90.9387 118.957 90.817 119.532L90.7838 119.682H86.3512L86.3678 119.482C86.4563 118.387 86.816 117.413 87.4469 116.561C88.0888 115.708 88.9742 115.044 90.1031 114.568C91.2431 114.081 92.5934 113.838 94.1539 113.838C95.6923 113.838 97.026 114.087 98.1549 114.585C99.2838 115.072 100.158 115.764 100.778 116.66C101.409 117.557 101.724 118.603 101.724 119.798V132H96.8766V129.344H96.777C96.4449 129.952 96.0133 130.478 95.482 130.921C94.9619 131.353 94.3697 131.69 93.7057 131.934C93.0416 132.166 92.3167 132.282 91.5309 132.282ZM110.521 132.365C109.215 132.365 108.103 132.1 107.185 131.568C106.277 131.026 105.58 130.257 105.093 129.261C104.617 128.265 104.379 127.075 104.379 125.691V114.203H109.227V124.679C109.227 125.841 109.498 126.743 110.04 127.385C110.593 128.027 111.412 128.348 112.497 128.348C113.039 128.348 113.526 128.254 113.958 128.065C114.401 127.877 114.777 127.612 115.087 127.269C115.397 126.914 115.635 126.499 115.801 126.023C115.967 125.536 116.05 125.005 116.05 124.43V114.203H120.897V132H116.05V129.062H115.95C115.64 129.737 115.231 130.323 114.722 130.821C114.224 131.319 113.62 131.701 112.912 131.967C112.215 132.232 111.418 132.365 110.521 132.365ZM131.787 132.365C129.982 132.365 128.422 131.989 127.105 131.236C125.788 130.484 124.775 129.416 124.067 128.032C123.358 126.638 123.004 124.989 123.004 123.085V123.068C123.004 121.165 123.358 119.527 124.067 118.154C124.786 116.771 125.799 115.708 127.105 114.967C128.422 114.214 129.966 113.838 131.737 113.838C133.353 113.838 134.753 114.142 135.937 114.751C137.121 115.349 138.045 116.162 138.709 117.191C139.385 118.221 139.755 119.377 139.822 120.661V120.777H135.323L135.289 120.628C135.146 119.776 134.78 119.067 134.194 118.503C133.607 117.927 132.81 117.64 131.803 117.64C131.017 117.64 130.331 117.861 129.745 118.304C129.169 118.735 128.721 119.361 128.4 120.18C128.09 120.988 127.935 121.956 127.935 123.085V123.102C127.935 124.264 128.09 125.254 128.4 126.073C128.721 126.881 129.169 127.501 129.745 127.933C130.331 128.353 131.023 128.563 131.82 128.563C132.794 128.563 133.574 128.292 134.161 127.75C134.758 127.197 135.14 126.472 135.306 125.575L135.323 125.426H139.838V125.525C139.761 126.82 139.385 127.982 138.709 129.012C138.034 130.041 137.105 130.86 135.92 131.469C134.747 132.066 133.369 132.365 131.787 132.365ZM141.879 132V114.203H146.726V132H141.879ZM144.303 111.912C143.572 111.912 142.958 111.663 142.46 111.165C141.962 110.667 141.713 110.075 141.713 109.389C141.713 108.691 141.962 108.099 142.46 107.612C142.958 107.114 143.572 106.865 144.303 106.865C145.033 106.865 145.647 107.114 146.145 107.612C146.643 108.099 146.892 108.691 146.892 109.389C146.892 110.075 146.643 110.667 146.145 111.165C145.647 111.663 145.033 111.912 144.303 111.912ZM157.748 132.365C155.944 132.365 154.384 131.994 153.067 131.253C151.75 130.511 150.731 129.449 150.012 128.065C149.293 126.682 148.933 125.027 148.933 123.102V123.068C148.933 121.154 149.298 119.51 150.029 118.138C150.759 116.754 151.783 115.692 153.1 114.95C154.417 114.209 155.961 113.838 157.732 113.838C159.514 113.838 161.063 114.209 162.38 114.95C163.708 115.681 164.738 116.738 165.468 118.121C166.198 119.493 166.564 121.143 166.564 123.068V123.102C166.564 125.038 166.198 126.699 165.468 128.082C164.749 129.465 163.73 130.528 162.413 131.27C161.096 132 159.541 132.365 157.748 132.365ZM157.765 128.563C158.551 128.563 159.231 128.353 159.807 127.933C160.393 127.501 160.842 126.881 161.152 126.073C161.473 125.254 161.633 124.264 161.633 123.102V123.068C161.633 121.917 161.473 120.938 161.152 120.13C160.831 119.322 160.377 118.708 159.79 118.287C159.204 117.855 158.517 117.64 157.732 117.64C156.957 117.64 156.276 117.855 155.69 118.287C155.114 118.708 154.666 119.322 154.345 120.13C154.024 120.938 153.863 121.917 153.863 123.068V123.102C153.863 124.264 154.018 125.254 154.328 126.073C154.649 126.881 155.103 127.501 155.69 127.933C156.276 128.353 156.968 128.563 157.765 128.563ZM158.927 112.211H155.673L158.695 106.533H162.994L158.927 112.211ZM168.671 132V114.203H173.518V117.125H173.618C174.083 116.107 174.769 115.304 175.676 114.718C176.584 114.131 177.707 113.838 179.046 113.838C181.005 113.838 182.516 114.43 183.579 115.614C184.652 116.787 185.189 118.42 185.189 120.512V132H180.341V121.508C180.341 120.346 180.065 119.449 179.511 118.818C178.969 118.176 178.156 117.855 177.071 117.855C176.351 117.855 175.726 118.021 175.195 118.354C174.664 118.674 174.249 119.128 173.95 119.715C173.662 120.301 173.518 120.988 173.518 121.773V132H168.671Z" fill="#FF3B30"/>
<rect width="430" height="212" transform="translate(0 895)" fill="#FDFDFD" fill-opacity="0.92"/>
<rect width="139" height="5" rx="2.5" transform="matrix(-1 0 0 1 284 915)" fill="black"/>
<g clip-path="url(#clip1_26_4961)">
<path d="M34.9888 81.5L30.5728 69.522H32.1416L35.6611 79.5659H35.7939L39.3135 69.522H40.8823L36.4663 81.5H34.9888ZM45.237 81.6577C42.6886 81.6577 41.1115 79.8979 41.1115 77.0342V77.0176C41.1115 74.1455 42.6886 72.394 45.237 72.394C47.7853 72.394 49.3625 74.1455 49.3625 77.0176V77.0342C49.3625 79.8979 47.7853 81.6577 45.237 81.6577ZM45.237 80.3794C46.9303 80.3794 47.8849 79.1426 47.8849 77.0342V77.0176C47.8849 74.9009 46.9303 73.6724 45.237 73.6724C43.5436 73.6724 42.589 74.9009 42.589 77.0176V77.0342C42.589 79.1426 43.5436 80.3794 45.237 80.3794ZM51.2767 81.5V68.999H52.721V81.5H51.2767ZM57.6152 81.5L54.3032 72.5518H55.8305L58.2793 79.9229H58.4121L60.8608 72.5518H62.3882L59.0762 81.5H57.6152ZM67.2077 81.6577C64.651 81.6577 63.1071 79.8647 63.1071 77.0591V77.0508C63.1071 74.2866 64.6842 72.394 67.1163 72.394C69.5485 72.394 71.026 74.2036 71.026 76.8765V77.4409H64.5846C64.6261 79.292 65.6471 80.3711 67.2409 80.3711C68.4528 80.3711 69.1998 79.7983 69.4406 79.2588L69.4738 79.1841H70.9181L70.9015 79.2505C70.5944 80.4624 69.3161 81.6577 67.2077 81.6577ZM67.108 73.6807C65.7799 73.6807 64.7672 74.5854 64.6095 76.2871H69.5568C69.4074 74.519 68.4279 73.6807 67.108 73.6807ZM72.8572 81.5V72.5518H74.3016V73.8799H74.4344C74.7747 72.9419 75.6131 72.394 76.825 72.394C77.0989 72.394 77.4061 72.4272 77.5472 72.4521V73.855C77.2483 73.8052 76.9744 73.772 76.659 73.772C75.2811 73.772 74.3016 74.6436 74.3016 75.9551V81.5H72.8572Z" fill="#007AFF"/>
<path d="M6.44141 75.0391C6.44141 75.4375 6.59375 75.7773 6.91016 76.082L16.0508 85.0234C16.2969 85.2812 16.625 85.4102 17 85.4102C17.7617 85.4102 18.3594 84.8242 18.3594 84.0508C18.3594 83.6758 18.207 83.3359 17.9492 83.0781L9.71094 75.0391L17.9492 67C18.207 66.7305 18.3594 66.3906 18.3594 66.0156C18.3594 65.2539 17.7617 64.668 17 64.668C16.625 64.668 16.2969 64.7969 16.0508 65.0547L6.91016 73.9961C6.59375 74.3008 6.45312 74.6406 6.44141 75.0391Z" fill="#007AFF"/>
</g>
<rect x="53" y="175" width="325" height="248" rx="20" fill="#FF3B30"/>
<path d="M71.0307 270V246.044H86.9018V250.178H76.0443V255.922H86.2875V259.84H76.0443V265.866H86.9018V270H71.0307ZM97.0272 270.365C95.3891 270.365 93.9946 270.127 92.8436 269.651C91.6925 269.175 90.7905 268.517 90.1375 267.676C89.4956 266.824 89.1082 265.839 88.9754 264.721L88.9588 264.571H93.6902L93.7234 264.721C93.8784 265.418 94.227 265.96 94.7693 266.348C95.3117 266.735 96.0643 266.929 97.0272 266.929C97.6469 266.929 98.1727 266.857 98.6043 266.713C99.0359 266.558 99.368 266.342 99.6004 266.065C99.8439 265.789 99.9656 265.457 99.9656 265.069V265.053C99.9656 264.577 99.7941 264.195 99.451 263.907C99.1079 263.619 98.4992 263.376 97.6248 263.177L94.6033 262.546C93.4523 262.302 92.4894 261.954 91.7147 261.5C90.951 261.035 90.3755 260.465 89.9881 259.79C89.6007 259.104 89.407 258.318 89.407 257.433V257.416C89.407 256.276 89.7114 255.291 90.3201 254.461C90.9288 253.631 91.7921 252.989 92.91 252.535C94.0389 252.07 95.3559 251.838 96.8611 251.838C98.4328 251.838 99.7664 252.092 100.862 252.602C101.969 253.1 102.816 253.775 103.402 254.627C104 255.479 104.315 256.425 104.348 257.466V257.632H99.8826L99.866 257.499C99.7885 256.857 99.4897 256.326 98.9695 255.905C98.4604 255.474 97.7576 255.258 96.8611 255.258C96.3078 255.258 95.8263 255.335 95.4168 255.49C95.0073 255.645 94.6919 255.867 94.4705 256.154C94.2492 256.431 94.1385 256.763 94.1385 257.15V257.167C94.1385 257.466 94.2104 257.737 94.3543 257.98C94.5093 258.213 94.7638 258.418 95.118 258.595C95.4721 258.772 95.9481 258.927 96.5457 259.06L99.5672 259.707C101.438 260.094 102.777 260.675 103.585 261.45C104.404 262.225 104.813 263.265 104.813 264.571V264.588C104.813 265.75 104.481 266.763 103.817 267.626C103.153 268.489 102.235 269.164 101.061 269.651C99.8992 270.127 98.5545 270.365 97.0272 270.365ZM113.876 270.365C111.906 270.365 110.445 269.95 109.493 269.12C108.542 268.29 108.066 266.923 108.066 265.02V255.855H105.592V252.203H108.066V247.854H112.963V252.203H116.217V255.855H112.963V264.488C112.963 265.318 113.146 265.899 113.511 266.231C113.887 266.552 114.441 266.713 115.171 266.713C115.392 266.713 115.586 266.707 115.752 266.696C115.918 266.674 116.073 266.652 116.217 266.63V270.183C115.951 270.227 115.619 270.266 115.221 270.299C114.834 270.343 114.385 270.365 113.876 270.365ZM126.359 270.365C124.544 270.365 122.983 269.994 121.677 269.253C120.371 268.5 119.364 267.432 118.656 266.049C117.959 264.665 117.61 263.027 117.61 261.135V261.118C117.61 259.226 117.959 257.588 118.656 256.204C119.364 254.81 120.355 253.736 121.628 252.983C122.911 252.22 124.422 251.838 126.16 251.838C127.897 251.838 129.397 252.209 130.659 252.95C131.932 253.681 132.911 254.715 133.597 256.055C134.295 257.394 134.643 258.96 134.643 260.753V262.247H119.984V259.192H132.352L130.045 262.048V260.188C130.045 259.148 129.884 258.279 129.563 257.582C129.242 256.874 128.794 256.342 128.218 255.988C127.654 255.634 126.995 255.457 126.243 255.457C125.49 255.457 124.821 255.64 124.234 256.005C123.658 256.37 123.205 256.907 122.873 257.615C122.552 258.312 122.391 259.17 122.391 260.188V262.064C122.391 263.049 122.552 263.891 122.873 264.588C123.205 265.285 123.675 265.822 124.284 266.198C124.893 266.563 125.617 266.746 126.459 266.746C127.123 266.746 127.698 266.641 128.185 266.431C128.672 266.22 129.071 265.955 129.38 265.634C129.69 265.313 129.901 264.986 130.011 264.654L130.045 264.555H134.494L134.444 264.737C134.311 265.39 134.051 266.049 133.664 266.713C133.276 267.377 132.751 267.986 132.087 268.539C131.434 269.092 130.631 269.535 129.679 269.867C128.739 270.199 127.632 270.365 126.359 270.365ZM151.225 270.365C149.421 270.365 147.86 269.989 146.543 269.236C145.226 268.484 144.214 267.416 143.505 266.032C142.797 264.638 142.443 262.989 142.443 261.085V261.068C142.443 259.165 142.797 257.527 143.505 256.154C144.225 254.771 145.237 253.708 146.543 252.967C147.86 252.214 149.404 251.838 151.175 251.838C152.791 251.838 154.191 252.142 155.375 252.751C156.56 253.349 157.484 254.162 158.148 255.191C158.823 256.221 159.194 257.377 159.26 258.661V258.777H154.761L154.728 258.628C154.584 257.776 154.219 257.067 153.632 256.503C153.046 255.927 152.249 255.64 151.242 255.64C150.456 255.64 149.77 255.861 149.183 256.304C148.607 256.735 148.159 257.361 147.838 258.18C147.528 258.988 147.373 259.956 147.373 261.085V261.102C147.373 262.264 147.528 263.254 147.838 264.073C148.159 264.881 148.607 265.501 149.183 265.933C149.77 266.353 150.461 266.563 151.258 266.563C152.232 266.563 153.012 266.292 153.599 265.75C154.197 265.197 154.579 264.472 154.745 263.575L154.761 263.426H159.277V263.525C159.199 264.82 158.823 265.982 158.148 267.012C157.473 268.041 156.543 268.86 155.359 269.469C154.186 270.066 152.808 270.365 151.225 270.365ZM169.386 270.365C167.582 270.365 166.021 269.994 164.704 269.253C163.387 268.511 162.369 267.449 161.649 266.065C160.93 264.682 160.57 263.027 160.57 261.102V261.068C160.57 259.154 160.935 257.51 161.666 256.138C162.396 254.754 163.42 253.692 164.737 252.95C166.054 252.209 167.598 251.838 169.369 251.838C171.151 251.838 172.7 252.209 174.017 252.95C175.346 253.681 176.375 254.738 177.105 256.121C177.836 257.493 178.201 259.143 178.201 261.068V261.102C178.201 263.038 177.836 264.699 177.105 266.082C176.386 267.465 175.368 268.528 174.051 269.27C172.734 270 171.179 270.365 169.386 270.365ZM169.402 266.563C170.188 266.563 170.869 266.353 171.444 265.933C172.031 265.501 172.479 264.881 172.789 264.073C173.11 263.254 173.27 262.264 173.27 261.102V261.068C173.27 259.917 173.11 258.938 172.789 258.13C172.468 257.322 172.014 256.708 171.428 256.287C170.841 255.855 170.155 255.64 169.369 255.64C168.594 255.64 167.914 255.855 167.327 256.287C166.751 256.708 166.303 257.322 165.982 258.13C165.661 258.938 165.501 259.917 165.501 261.068V261.102C165.501 262.264 165.656 263.254 165.966 264.073C166.287 264.881 166.74 265.501 167.327 265.933C167.914 266.353 168.605 266.563 169.402 266.563ZM170.564 250.211H167.31L170.332 244.533H174.632L170.564 250.211ZM186.899 270.365C185.404 270.365 184.115 269.994 183.03 269.253C181.946 268.511 181.11 267.449 180.524 266.065C179.948 264.682 179.66 263.027 179.66 261.102V261.085C179.66 259.148 179.954 257.493 180.54 256.121C181.127 254.738 181.957 253.681 183.03 252.95C184.115 252.209 185.404 251.838 186.899 251.838C187.74 251.838 188.515 251.976 189.223 252.253C189.931 252.53 190.551 252.928 191.082 253.448C191.625 253.957 192.056 254.572 192.377 255.291H192.477V246.044H197.324V270H192.477V266.962H192.377C192.067 267.67 191.647 268.279 191.115 268.788C190.584 269.286 189.964 269.674 189.256 269.95C188.548 270.227 187.762 270.365 186.899 270.365ZM188.526 266.348C189.311 266.348 190.003 266.137 190.601 265.717C191.198 265.285 191.663 264.676 191.995 263.891C192.327 263.105 192.493 262.175 192.493 261.102V261.085C192.493 260.011 192.322 259.087 191.979 258.312C191.647 257.527 191.182 256.924 190.584 256.503C189.998 256.071 189.311 255.855 188.526 255.855C187.718 255.855 187.02 256.066 186.434 256.486C185.847 256.907 185.393 257.51 185.072 258.296C184.752 259.071 184.591 260 184.591 261.085V261.102C184.591 262.175 184.746 263.105 185.056 263.891C185.377 264.676 185.831 265.285 186.417 265.717C187.015 266.137 187.718 266.348 188.526 266.348ZM200.261 270V252.203H205.109V270H200.261ZM202.685 249.912C201.955 249.912 201.34 249.663 200.842 249.165C200.344 248.667 200.095 248.075 200.095 247.389C200.095 246.691 200.344 246.099 200.842 245.612C201.34 245.114 201.955 244.865 202.685 244.865C203.416 244.865 204.03 245.114 204.528 245.612C205.026 246.099 205.275 246.691 205.275 247.389C205.275 248.075 205.026 248.667 204.528 249.165C204.03 249.663 203.416 249.912 202.685 249.912ZM216.28 276.176C214.653 276.176 213.231 275.949 212.014 275.495C210.807 275.052 209.844 274.449 209.125 273.686C208.417 272.922 207.985 272.064 207.83 271.112L207.813 270.963H212.528L212.578 271.079C212.777 271.511 213.192 271.893 213.823 272.225C214.454 272.557 215.273 272.723 216.28 272.723C217.531 272.723 218.483 272.424 219.136 271.826C219.789 271.229 220.115 270.432 220.115 269.436V266.713H220.016C219.706 267.333 219.285 267.869 218.754 268.323C218.223 268.777 217.597 269.131 216.878 269.386C216.17 269.629 215.384 269.751 214.521 269.751C213.037 269.751 211.754 269.397 210.669 268.688C209.595 267.98 208.765 266.967 208.179 265.65C207.603 264.322 207.315 262.74 207.315 260.902V260.886C207.315 258.993 207.609 257.372 208.195 256.021C208.793 254.671 209.634 253.636 210.719 252.917C211.803 252.198 213.098 251.838 214.604 251.838C215.445 251.838 216.214 251.976 216.911 252.253C217.608 252.53 218.217 252.923 218.737 253.432C219.269 253.941 219.695 254.544 220.016 255.241H220.115V252.203H224.963V269.502C224.963 270.819 224.609 271.976 223.9 272.972C223.203 273.979 222.201 274.765 220.896 275.329C219.601 275.894 218.062 276.176 216.28 276.176ZM216.197 266.198C216.994 266.198 217.686 265.988 218.272 265.567C218.859 265.147 219.313 264.549 219.634 263.774C219.966 263 220.132 262.081 220.132 261.019V261.002C220.132 259.939 219.966 259.026 219.634 258.263C219.313 257.488 218.854 256.896 218.256 256.486C217.669 256.066 216.983 255.855 216.197 255.855C215.4 255.855 214.703 256.066 214.105 256.486C213.508 256.896 213.049 257.482 212.728 258.246C212.407 259.01 212.246 259.928 212.246 261.002V261.019C212.246 262.081 212.407 263 212.728 263.774C213.049 264.549 213.508 265.147 214.105 265.567C214.703 265.988 215.4 266.198 216.197 266.198ZM235.918 270.365C234.114 270.365 232.554 269.994 231.237 269.253C229.92 268.511 228.901 267.449 228.182 266.065C227.463 264.682 227.103 263.027 227.103 261.102V261.068C227.103 259.154 227.468 257.51 228.199 256.138C228.929 254.754 229.953 253.692 231.27 252.95C232.587 252.209 234.131 251.838 235.902 251.838C237.684 251.838 239.233 252.209 240.55 252.95C241.878 253.681 242.908 254.738 243.638 256.121C244.369 257.493 244.734 259.143 244.734 261.068V261.102C244.734 263.038 244.369 264.699 243.638 266.082C242.919 267.465 241.9 268.528 240.583 269.27C239.266 270 237.711 270.365 235.918 270.365ZM235.935 266.563C236.721 266.563 237.401 266.353 237.977 265.933C238.564 265.501 239.012 264.881 239.322 264.073C239.643 263.254 239.803 262.264 239.803 261.102V261.068C239.803 259.917 239.643 258.938 239.322 258.13C239.001 257.322 238.547 256.708 237.96 256.287C237.374 255.855 236.688 255.64 235.902 255.64C235.127 255.64 234.446 255.855 233.86 256.287C233.284 256.708 232.836 257.322 232.515 258.13C232.194 258.938 232.034 259.917 232.034 261.068V261.102C232.034 262.264 232.189 263.254 232.498 264.073C232.819 264.881 233.273 265.501 233.86 265.933C234.446 266.353 235.138 266.563 235.935 266.563ZM253.181 270V252.203H258.029V255.125H258.128C258.593 254.107 259.279 253.304 260.187 252.718C261.094 252.131 262.218 251.838 263.557 251.838C265.516 251.838 267.027 252.43 268.089 253.614C269.163 254.787 269.699 256.42 269.699 258.512V270H264.852V259.508C264.852 258.346 264.575 257.449 264.022 256.818C263.479 256.176 262.666 255.855 261.581 255.855C260.862 255.855 260.237 256.021 259.705 256.354C259.174 256.674 258.759 257.128 258.46 257.715C258.172 258.301 258.029 258.988 258.029 259.773V270H253.181ZM280.539 270.365C278.735 270.365 277.174 269.994 275.857 269.253C274.54 268.511 273.522 267.449 272.802 266.065C272.083 264.682 271.723 263.027 271.723 261.102V261.068C271.723 259.154 272.088 257.51 272.819 256.138C273.549 254.754 274.573 253.692 275.89 252.95C277.207 252.209 278.751 251.838 280.522 251.838C282.304 251.838 283.853 252.209 285.171 252.95C286.499 253.681 287.528 254.738 288.258 256.121C288.989 257.493 289.354 259.143 289.354 261.068V261.102C289.354 263.038 288.989 264.699 288.258 266.082C287.539 267.465 286.521 268.528 285.204 269.27C283.887 270 282.332 270.365 280.539 270.365ZM280.555 266.563C281.341 266.563 282.022 266.353 282.597 265.933C283.184 265.501 283.632 264.881 283.942 264.073C284.263 263.254 284.423 262.264 284.423 261.102V261.068C284.423 259.917 284.263 258.938 283.942 258.13C283.621 257.322 283.167 256.708 282.581 256.287C281.994 255.855 281.308 255.64 280.522 255.64C279.747 255.64 279.067 255.855 278.48 256.287C277.905 256.708 277.456 257.322 277.135 258.13C276.814 258.938 276.654 259.917 276.654 261.068V261.102C276.654 262.264 276.809 263.254 277.119 264.073C277.44 264.881 277.893 265.501 278.48 265.933C279.067 266.353 279.758 266.563 280.555 266.563ZM305.903 270.365C304.088 270.365 302.527 269.994 301.221 269.253C299.915 268.5 298.908 267.432 298.2 266.049C297.502 264.665 297.154 263.027 297.154 261.135V261.118C297.154 259.226 297.502 257.588 298.2 256.204C298.908 254.81 299.899 253.736 301.171 252.983C302.455 252.22 303.966 251.838 305.704 251.838C307.441 251.838 308.941 252.209 310.203 252.95C311.475 253.681 312.455 254.715 313.141 256.055C313.838 257.394 314.187 258.96 314.187 260.753V262.247H299.528V259.192H311.896L309.588 262.048V260.188C309.588 259.148 309.428 258.279 309.107 257.582C308.786 256.874 308.338 256.342 307.762 255.988C307.198 255.634 306.539 255.457 305.787 255.457C305.034 255.457 304.364 255.64 303.778 256.005C303.202 256.37 302.748 256.907 302.416 257.615C302.095 258.312 301.935 259.17 301.935 260.188V262.064C301.935 263.049 302.095 263.891 302.416 264.588C302.748 265.285 303.219 265.822 303.828 266.198C304.436 266.563 305.161 266.746 306.002 266.746C306.666 266.746 307.242 266.641 307.729 266.431C308.216 266.22 308.614 265.955 308.924 265.634C309.234 265.313 309.444 264.986 309.555 264.654L309.588 264.555H314.038L313.988 264.737C313.855 265.39 313.595 266.049 313.207 266.713C312.82 267.377 312.294 267.986 311.63 268.539C310.977 269.092 310.175 269.535 309.223 269.867C308.282 270.199 307.176 270.365 305.903 270.365ZM323.615 270.365C321.977 270.365 320.582 270.127 319.431 269.651C318.28 269.175 317.378 268.517 316.725 267.676C316.083 266.824 315.696 265.839 315.563 264.721L315.547 264.571H320.278L320.311 264.721C320.466 265.418 320.815 265.96 321.357 266.348C321.9 266.735 322.652 266.929 323.615 266.929C324.235 266.929 324.761 266.857 325.192 266.713C325.624 266.558 325.956 266.342 326.188 266.065C326.432 265.789 326.554 265.457 326.554 265.069V265.053C326.554 264.577 326.382 264.195 326.039 263.907C325.696 263.619 325.087 263.376 324.213 263.177L321.191 262.546C320.04 262.302 319.077 261.954 318.303 261.5C317.539 261.035 316.963 260.465 316.576 259.79C316.189 259.104 315.995 258.318 315.995 257.433V257.416C315.995 256.276 316.299 255.291 316.908 254.461C317.517 253.631 318.38 252.989 319.498 252.535C320.627 252.07 321.944 251.838 323.449 251.838C325.021 251.838 326.354 252.092 327.45 252.602C328.557 253.1 329.403 253.775 329.99 254.627C330.588 255.479 330.903 256.425 330.936 257.466V257.632H326.471L326.454 257.499C326.376 256.857 326.078 256.326 325.557 255.905C325.048 255.474 324.346 255.258 323.449 255.258C322.896 255.258 322.414 255.335 322.005 255.49C321.595 255.645 321.28 255.867 321.058 256.154C320.837 256.431 320.726 256.763 320.726 257.15V257.167C320.726 257.466 320.798 257.737 320.942 257.98C321.097 258.213 321.352 258.418 321.706 258.595C322.06 258.772 322.536 258.927 323.134 259.06L326.155 259.707C328.026 260.094 329.365 260.675 330.173 261.45C330.992 262.225 331.401 263.265 331.401 264.571V264.588C331.401 265.75 331.069 266.763 330.405 267.626C329.741 268.489 328.822 269.164 327.649 269.651C326.487 270.127 325.142 270.365 323.615 270.365ZM340.464 270.365C338.494 270.365 337.033 269.95 336.081 269.12C335.129 268.29 334.654 266.923 334.654 265.02V255.855H332.18V252.203H334.654V247.854H339.551V252.203H342.805V255.855H339.551V264.488C339.551 265.318 339.734 265.899 340.099 266.231C340.475 266.552 341.029 266.713 341.759 266.713C341.98 266.713 342.174 266.707 342.34 266.696C342.506 266.674 342.661 266.652 342.805 266.63V270.183C342.539 270.227 342.207 270.266 341.809 270.299C341.421 270.343 340.973 270.365 340.464 270.365ZM350.208 270.282C349.023 270.282 347.983 270.055 347.087 269.602C346.19 269.137 345.487 268.5 344.978 267.692C344.48 266.873 344.231 265.944 344.231 264.903V264.87C344.231 263.785 344.502 262.861 345.045 262.098C345.587 261.323 346.373 260.714 347.402 260.271C348.431 259.829 349.682 259.558 351.154 259.458L358.093 259.026V262.048L351.884 262.446C350.955 262.502 350.246 262.723 349.759 263.11C349.272 263.487 349.029 263.99 349.029 264.621V264.654C349.029 265.307 349.278 265.822 349.776 266.198C350.274 266.563 350.944 266.746 351.785 266.746C352.504 266.746 353.146 266.608 353.711 266.331C354.286 266.043 354.734 265.656 355.055 265.169C355.387 264.671 355.553 264.112 355.553 263.492V258.097C355.553 257.311 355.304 256.691 354.806 256.237C354.308 255.772 353.583 255.54 352.631 255.54C351.724 255.54 351.004 255.728 350.473 256.104C349.942 256.481 349.615 256.957 349.494 257.532L349.461 257.682H345.028L345.045 257.482C345.133 256.387 345.493 255.413 346.124 254.561C346.766 253.708 347.651 253.044 348.78 252.568C349.92 252.081 351.27 251.838 352.831 251.838C354.369 251.838 355.703 252.087 356.832 252.585C357.961 253.072 358.835 253.764 359.455 254.66C360.086 255.557 360.401 256.603 360.401 257.798V270H355.553V267.344H355.454C355.122 267.952 354.69 268.478 354.159 268.921C353.639 269.353 353.046 269.69 352.382 269.934C351.718 270.166 350.993 270.282 350.208 270.282ZM353.943 250.211H350.689L353.711 244.533H358.01L353.943 250.211ZM129.031 311.282C127.847 311.282 126.806 311.055 125.91 310.602C125.013 310.137 124.311 309.5 123.802 308.692C123.304 307.873 123.054 306.944 123.054 305.903V305.87C123.054 304.785 123.326 303.861 123.868 303.098C124.41 302.323 125.196 301.714 126.225 301.271C127.255 300.829 128.505 300.558 129.977 300.458L136.917 300.026V303.048L130.708 303.446C129.778 303.502 129.07 303.723 128.583 304.11C128.096 304.487 127.852 304.99 127.852 305.621V305.654C127.852 306.307 128.101 306.822 128.599 307.198C129.097 307.563 129.767 307.746 130.608 307.746C131.328 307.746 131.97 307.608 132.534 307.331C133.11 307.043 133.558 306.656 133.879 306.169C134.211 305.671 134.377 305.112 134.377 304.492V299.097C134.377 298.311 134.128 297.691 133.63 297.237C133.132 296.772 132.407 296.54 131.455 296.54C130.547 296.54 129.828 296.728 129.297 297.104C128.765 297.481 128.439 297.957 128.317 298.532L128.284 298.682H123.851L123.868 298.482C123.957 297.387 124.316 296.413 124.947 295.561C125.589 294.708 126.474 294.044 127.603 293.568C128.743 293.081 130.094 292.838 131.654 292.838C133.193 292.838 134.526 293.087 135.655 293.585C136.784 294.072 137.658 294.764 138.278 295.66C138.909 296.557 139.224 297.603 139.224 298.798V311H134.377V308.344H134.277C133.945 308.952 133.513 309.478 132.982 309.921C132.462 310.353 131.87 310.69 131.206 310.934C130.542 311.166 129.817 311.282 129.031 311.282ZM148.022 311.365C146.716 311.365 145.603 311.1 144.685 310.568C143.777 310.026 143.08 309.257 142.593 308.261C142.117 307.265 141.879 306.075 141.879 304.691V293.203H146.727V303.679C146.727 304.841 146.998 305.743 147.54 306.385C148.094 307.027 148.913 307.348 149.997 307.348C150.54 307.348 151.027 307.254 151.458 307.065C151.901 306.877 152.277 306.612 152.587 306.269C152.897 305.914 153.135 305.499 153.301 305.023C153.467 304.536 153.55 304.005 153.55 303.43V293.203H158.398V311H153.55V308.062H153.45C153.14 308.737 152.731 309.323 152.222 309.821C151.724 310.319 151.121 310.701 150.412 310.967C149.715 311.232 148.918 311.365 148.022 311.365ZM168.224 311.365C166.254 311.365 164.793 310.95 163.841 310.12C162.89 309.29 162.414 307.923 162.414 306.02V296.855H159.94V293.203H162.414V288.854H167.311V293.203H170.565V296.855H167.311V305.488C167.311 306.318 167.494 306.899 167.859 307.231C168.235 307.552 168.789 307.713 169.519 307.713C169.74 307.713 169.934 307.707 170.1 307.696C170.266 307.674 170.421 307.652 170.565 307.63V311.183C170.299 311.227 169.967 311.266 169.569 311.299C169.182 311.343 168.733 311.365 168.224 311.365ZM180.773 311.365C178.969 311.365 177.409 310.994 176.092 310.253C174.775 309.511 173.757 308.449 173.037 307.065C172.318 305.682 171.958 304.027 171.958 302.102V302.068C171.958 300.154 172.323 298.51 173.054 297.138C173.784 295.754 174.808 294.692 176.125 293.95C177.442 293.209 178.986 292.838 180.757 292.838C182.539 292.838 184.088 293.209 185.405 293.95C186.733 294.681 187.763 295.738 188.493 297.121C189.224 298.493 189.589 300.143 189.589 302.068V302.102C189.589 304.038 189.224 305.699 188.493 307.082C187.774 308.465 186.756 309.528 185.438 310.27C184.121 311 182.566 311.365 180.773 311.365ZM180.79 307.563C181.576 307.563 182.257 307.353 182.832 306.933C183.419 306.501 183.867 305.881 184.177 305.073C184.498 304.254 184.658 303.264 184.658 302.102V302.068C184.658 300.917 184.498 299.938 184.177 299.13C183.856 298.322 183.402 297.708 182.815 297.287C182.229 296.855 181.543 296.64 180.757 296.64C179.982 296.64 179.301 296.855 178.715 297.287C178.139 297.708 177.691 298.322 177.37 299.13C177.049 299.938 176.889 300.917 176.889 302.068V302.102C176.889 303.264 177.044 304.254 177.354 305.073C177.674 305.881 178.128 306.501 178.715 306.933C179.301 307.353 179.993 307.563 180.79 307.563ZM191.696 311V293.203H196.543V296.308H196.643C196.909 295.212 197.39 294.36 198.087 293.751C198.785 293.142 199.653 292.838 200.694 292.838C200.959 292.838 201.214 292.854 201.457 292.888C201.701 292.921 201.911 292.965 202.088 293.021V297.287C201.889 297.21 201.635 297.149 201.325 297.104C201.015 297.049 200.683 297.021 200.329 297.021C199.532 297.021 198.851 297.176 198.287 297.486C197.722 297.796 197.29 298.25 196.992 298.848C196.693 299.445 196.543 300.176 196.543 301.039V311H191.696ZM203.78 311V293.203H208.628V311H203.78ZM206.204 290.912C205.473 290.912 204.859 290.663 204.361 290.165C203.863 289.667 203.614 289.075 203.614 288.389C203.614 287.691 203.863 287.099 204.361 286.612C204.859 286.114 205.473 285.865 206.204 285.865C206.934 285.865 207.549 286.114 208.047 286.612C208.545 287.099 208.794 287.691 208.794 288.389C208.794 289.075 208.545 289.667 208.047 290.165C207.549 290.663 206.934 290.912 206.204 290.912ZM211.15 311V308.244L220.098 296.938V296.855H211.282V293.203H225.643V296.274L217.226 307.248V307.348H225.842V311H211.15ZM233.577 311.282C232.393 311.282 231.352 311.055 230.456 310.602C229.559 310.137 228.856 309.5 228.347 308.692C227.849 307.873 227.6 306.944 227.6 305.903V305.87C227.6 304.785 227.871 303.861 228.414 303.098C228.956 302.323 229.742 301.714 230.771 301.271C231.8 300.829 233.051 300.558 234.523 300.458L241.462 300.026V303.048L235.254 303.446C234.324 303.502 233.615 303.723 233.129 304.11C232.642 304.487 232.398 304.99 232.398 305.621V305.654C232.398 306.307 232.647 306.822 233.145 307.198C233.643 307.563 234.313 307.746 235.154 307.746C235.873 307.746 236.515 307.608 237.08 307.331C237.655 307.043 238.103 306.656 238.424 306.169C238.756 305.671 238.922 305.112 238.922 304.492V299.097C238.922 298.311 238.673 297.691 238.175 297.237C237.677 296.772 236.952 296.54 236.001 296.54C235.093 296.54 234.374 296.728 233.842 297.104C233.311 297.481 232.985 297.957 232.863 298.532L232.83 298.682H228.397L228.414 298.482C228.502 297.387 228.862 296.413 229.493 295.561C230.135 294.708 231.02 294.044 232.149 293.568C233.289 293.081 234.639 292.838 236.2 292.838C237.738 292.838 239.072 293.087 240.201 293.585C241.33 294.072 242.204 294.764 242.824 295.66C243.455 296.557 243.77 297.603 243.77 298.798V311H238.922V308.344H238.823C238.491 308.952 238.059 309.478 237.528 309.921C237.008 310.353 236.416 310.69 235.752 310.934C235.087 311.166 234.363 311.282 233.577 311.282ZM253.099 311.365C251.604 311.365 250.315 310.994 249.23 310.253C248.146 309.511 247.31 308.449 246.724 307.065C246.148 305.682 245.86 304.027 245.86 302.102V302.085C245.86 300.148 246.154 298.493 246.74 297.121C247.327 295.738 248.157 294.681 249.23 293.95C250.315 293.209 251.604 292.838 253.099 292.838C253.94 292.838 254.715 292.976 255.423 293.253C256.131 293.53 256.751 293.928 257.282 294.448C257.825 294.957 258.256 295.572 258.577 296.291H258.677V287.044H263.524V311H258.677V307.962H258.577C258.267 308.67 257.847 309.279 257.315 309.788C256.784 310.286 256.164 310.674 255.456 310.95C254.748 311.227 253.962 311.365 253.099 311.365ZM254.726 307.348C255.511 307.348 256.203 307.137 256.801 306.717C257.398 306.285 257.863 305.676 258.195 304.891C258.527 304.105 258.693 303.175 258.693 302.102V302.085C258.693 301.011 258.522 300.087 258.179 299.312C257.847 298.527 257.382 297.924 256.784 297.503C256.198 297.071 255.511 296.855 254.726 296.855C253.918 296.855 253.22 297.066 252.634 297.486C252.047 297.907 251.593 298.51 251.272 299.296C250.951 300.071 250.791 301 250.791 302.085V302.102C250.791 303.175 250.946 304.105 251.256 304.891C251.577 305.676 252.031 306.285 252.617 306.717C253.215 307.137 253.918 307.348 254.726 307.348ZM274.53 311.365C272.726 311.365 271.165 310.994 269.848 310.253C268.531 309.511 267.513 308.449 266.793 307.065C266.074 305.682 265.714 304.027 265.714 302.102V302.068C265.714 300.154 266.079 298.51 266.81 297.138C267.54 295.754 268.564 294.692 269.881 293.95C271.198 293.209 272.742 292.838 274.513 292.838C276.295 292.838 277.844 293.209 279.162 293.95C280.49 294.681 281.519 295.738 282.249 297.121C282.98 298.493 283.345 300.143 283.345 302.068V302.102C283.345 304.038 282.98 305.699 282.249 307.082C281.53 308.465 280.512 309.528 279.195 310.27C277.878 311 276.323 311.365 274.53 311.365ZM274.546 307.563C275.332 307.563 276.013 307.353 276.588 306.933C277.175 306.501 277.623 305.881 277.933 305.073C278.254 304.254 278.414 303.264 278.414 302.102V302.068C278.414 300.917 278.254 299.938 277.933 299.13C277.612 298.322 277.158 297.708 276.572 297.287C275.985 296.855 275.299 296.64 274.513 296.64C273.738 296.64 273.058 296.855 272.471 297.287C271.896 297.708 271.447 298.322 271.126 299.13C270.805 299.938 270.645 300.917 270.645 302.068V302.102C270.645 303.264 270.8 304.254 271.11 305.073C271.431 305.881 271.884 306.501 272.471 306.933C273.058 307.353 273.749 307.563 274.546 307.563ZM297.088 311.282C295.904 311.282 294.863 311.055 293.967 310.602C293.071 310.137 292.368 309.5 291.859 308.692C291.361 307.873 291.112 306.944 291.112 305.903V305.87C291.112 304.785 291.383 303.861 291.925 303.098C292.467 302.323 293.253 301.714 294.282 301.271C295.312 300.829 296.562 300.558 298.034 300.458L304.974 300.026V303.048L298.765 303.446C297.835 303.502 297.127 303.723 296.64 304.11C296.153 304.487 295.909 304.99 295.909 305.621V305.654C295.909 306.307 296.158 306.822 296.656 307.198C297.154 307.563 297.824 307.746 298.665 307.746C299.385 307.746 300.027 307.608 300.591 307.331C301.167 307.043 301.615 306.656 301.936 306.169C302.268 305.671 302.434 305.112 302.434 304.492V299.097C302.434 298.311 302.185 297.691 301.687 297.237C301.189 296.772 300.464 296.54 299.512 296.54C298.604 296.54 297.885 296.728 297.354 297.104C296.822 297.481 296.496 297.957 296.374 298.532L296.341 298.682H291.908L291.925 298.482C292.014 297.387 292.373 296.413 293.004 295.561C293.646 294.708 294.531 294.044 295.66 293.568C296.8 293.081 298.151 292.838 299.711 292.838C301.25 292.838 302.583 293.087 303.712 293.585C304.841 294.072 305.715 294.764 306.335 295.66C306.966 296.557 307.281 297.603 307.281 298.798V311H302.434V308.344H302.334C302.002 308.952 301.571 309.478 301.039 309.921C300.519 310.353 299.927 310.69 299.263 310.934C298.599 311.166 297.874 311.282 297.088 311.282ZM154.976 352V334.203H159.824V352H154.976ZM157.4 331.912C156.67 331.912 156.055 331.663 155.557 331.165C155.059 330.667 154.81 330.075 154.81 329.389C154.81 328.691 155.059 328.099 155.557 327.612C156.055 327.114 156.67 326.865 157.4 326.865C158.13 326.865 158.745 327.114 159.243 327.612C159.741 328.099 159.99 328.691 159.99 329.389C159.99 330.075 159.741 330.667 159.243 331.165C158.745 331.663 158.13 331.912 157.4 331.912ZM162.678 352V334.203H167.525V337.125H167.625C168.09 336.107 168.776 335.304 169.684 334.718C170.591 334.131 171.715 333.838 173.054 333.838C175.013 333.838 176.523 334.43 177.586 335.614C178.66 336.787 179.196 338.42 179.196 340.512V352H174.349V341.508C174.349 340.346 174.072 339.449 173.519 338.818C172.976 338.176 172.163 337.855 171.078 337.855C170.359 337.855 169.733 338.021 169.202 338.354C168.671 338.674 168.256 339.128 167.957 339.715C167.669 340.301 167.525 340.988 167.525 341.773V352H162.678ZM190.185 358.176C188.558 358.176 187.136 357.949 185.918 357.495C184.712 357.052 183.749 356.449 183.03 355.686C182.321 354.922 181.89 354.064 181.735 353.112L181.718 352.963H186.433L186.483 353.079C186.682 353.511 187.097 353.893 187.728 354.225C188.359 354.557 189.178 354.723 190.185 354.723C191.436 354.723 192.387 354.424 193.04 353.826C193.693 353.229 194.02 352.432 194.02 351.436V348.713H193.92C193.61 349.333 193.19 349.869 192.659 350.323C192.127 350.777 191.502 351.131 190.783 351.386C190.074 351.629 189.288 351.751 188.425 351.751C186.942 351.751 185.658 351.397 184.574 350.688C183.5 349.98 182.67 348.967 182.083 347.65C181.508 346.322 181.22 344.74 181.22 342.902V342.886C181.22 340.993 181.513 339.372 182.1 338.021C182.698 336.671 183.539 335.636 184.623 334.917C185.708 334.198 187.003 333.838 188.508 333.838C189.349 333.838 190.119 333.976 190.816 334.253C191.513 334.53 192.122 334.923 192.642 335.432C193.173 335.941 193.599 336.544 193.92 337.241H194.02V334.203H198.868V351.502C198.868 352.819 198.513 353.976 197.805 354.972C197.108 355.979 196.106 356.765 194.8 357.329C193.505 357.894 191.967 358.176 190.185 358.176ZM190.102 348.198C190.899 348.198 191.591 347.988 192.177 347.567C192.764 347.147 193.218 346.549 193.538 345.774C193.871 345 194.037 344.081 194.037 343.019V343.002C194.037 341.939 193.871 341.026 193.538 340.263C193.218 339.488 192.758 338.896 192.161 338.486C191.574 338.066 190.888 337.855 190.102 337.855C189.305 337.855 188.608 338.066 188.01 338.486C187.413 338.896 186.953 339.482 186.632 340.246C186.311 341.01 186.151 341.928 186.151 343.002V343.019C186.151 344.081 186.311 345 186.632 345.774C186.953 346.549 187.413 347.147 188.01 347.567C188.608 347.988 189.305 348.198 190.102 348.198ZM201.655 352V334.203H206.503V337.308H206.602C206.868 336.212 207.349 335.36 208.047 334.751C208.744 334.142 209.613 333.838 210.653 333.838C210.919 333.838 211.173 333.854 211.417 333.888C211.66 333.921 211.871 333.965 212.048 334.021V338.287C211.848 338.21 211.594 338.149 211.284 338.104C210.974 338.049 210.642 338.021 210.288 338.021C209.491 338.021 208.81 338.176 208.246 338.486C207.681 338.796 207.25 339.25 206.951 339.848C206.652 340.445 206.503 341.176 206.503 342.039V352H201.655ZM221.177 352.365C219.362 352.365 217.801 351.994 216.495 351.253C215.189 350.5 214.182 349.432 213.474 348.049C212.777 346.665 212.428 345.027 212.428 343.135V343.118C212.428 341.226 212.777 339.588 213.474 338.204C214.182 336.81 215.173 335.736 216.446 334.983C217.729 334.22 219.24 333.838 220.978 333.838C222.715 333.838 224.215 334.209 225.477 334.95C226.75 335.681 227.729 336.715 228.415 338.055C229.113 339.394 229.461 340.96 229.461 342.753V344.247H214.802V341.192H227.17L224.863 344.048V342.188C224.863 341.148 224.702 340.279 224.381 339.582C224.06 338.874 223.612 338.342 223.036 337.988C222.472 337.634 221.813 337.457 221.061 337.457C220.308 337.457 219.639 337.64 219.052 338.005C218.476 338.37 218.023 338.907 217.691 339.615C217.37 340.312 217.209 341.17 217.209 342.188V344.064C217.209 345.049 217.37 345.891 217.691 346.588C218.023 347.285 218.493 347.822 219.102 348.198C219.71 348.563 220.435 348.746 221.277 348.746C221.941 348.746 222.516 348.641 223.003 348.431C223.49 348.22 223.889 347.955 224.198 347.634C224.508 347.313 224.719 346.986 224.829 346.654L224.863 346.555H229.312L229.262 346.737C229.129 347.39 228.869 348.049 228.482 348.713C228.094 349.377 227.569 349.986 226.904 350.539C226.252 351.092 225.449 351.535 224.497 351.867C223.557 352.199 222.45 352.365 221.177 352.365ZM238.889 352.365C237.251 352.365 235.857 352.127 234.706 351.651C233.555 351.175 232.653 350.517 232 349.676C231.358 348.824 230.97 347.839 230.837 346.721L230.821 346.571H235.552L235.586 346.721C235.74 347.418 236.089 347.96 236.631 348.348C237.174 348.735 237.926 348.929 238.889 348.929C239.509 348.929 240.035 348.857 240.466 348.713C240.898 348.558 241.23 348.342 241.462 348.065C241.706 347.789 241.828 347.457 241.828 347.069V347.053C241.828 346.577 241.656 346.195 241.313 345.907C240.97 345.619 240.361 345.376 239.487 345.177L236.465 344.546C235.314 344.302 234.351 343.954 233.577 343.5C232.813 343.035 232.238 342.465 231.85 341.79C231.463 341.104 231.269 340.318 231.269 339.433V339.416C231.269 338.276 231.573 337.291 232.182 336.461C232.791 335.631 233.654 334.989 234.772 334.535C235.901 334.07 237.218 333.838 238.723 333.838C240.295 333.838 241.629 334.092 242.724 334.602C243.831 335.1 244.678 335.775 245.264 336.627C245.862 337.479 246.177 338.425 246.211 339.466V339.632H241.745L241.728 339.499C241.651 338.857 241.352 338.326 240.832 337.905C240.323 337.474 239.62 337.258 238.723 337.258C238.17 337.258 237.688 337.335 237.279 337.49C236.869 337.645 236.554 337.867 236.333 338.154C236.111 338.431 236.001 338.763 236.001 339.15V339.167C236.001 339.466 236.073 339.737 236.216 339.98C236.371 340.213 236.626 340.418 236.98 340.595C237.334 340.772 237.81 340.927 238.408 341.06L241.429 341.707C243.3 342.094 244.639 342.675 245.447 343.45C246.266 344.225 246.675 345.265 246.675 346.571V346.588C246.675 347.75 246.343 348.763 245.679 349.626C245.015 350.489 244.097 351.164 242.923 351.651C241.761 352.127 240.417 352.365 238.889 352.365ZM253.962 352.282C252.778 352.282 251.737 352.055 250.841 351.602C249.944 351.137 249.242 350.5 248.732 349.692C248.234 348.873 247.985 347.944 247.985 346.903V346.87C247.985 345.785 248.257 344.861 248.799 344.098C249.341 343.323 250.127 342.714 251.156 342.271C252.186 341.829 253.436 341.558 254.908 341.458L261.848 341.026V344.048L255.639 344.446C254.709 344.502 254.001 344.723 253.514 345.11C253.027 345.487 252.783 345.99 252.783 346.621V346.654C252.783 347.307 253.032 347.822 253.53 348.198C254.028 348.563 254.698 348.746 255.539 348.746C256.258 348.746 256.9 348.608 257.465 348.331C258.04 348.043 258.489 347.656 258.81 347.169C259.142 346.671 259.308 346.112 259.308 345.492V340.097C259.308 339.311 259.059 338.691 258.561 338.237C258.062 337.772 257.338 337.54 256.386 337.54C255.478 337.54 254.759 337.728 254.228 338.104C253.696 338.481 253.37 338.957 253.248 339.532L253.215 339.682H248.782L248.799 339.482C248.887 338.387 249.247 337.413 249.878 336.561C250.52 335.708 251.405 335.044 252.534 334.568C253.674 334.081 255.024 333.838 256.585 333.838C258.123 333.838 259.457 334.087 260.586 334.585C261.715 335.072 262.589 335.764 263.209 336.66C263.84 337.557 264.155 338.603 264.155 339.798V352H259.308V349.344H259.208C258.876 349.952 258.444 350.478 257.913 350.921C257.393 351.353 256.801 351.69 256.137 351.934C255.473 352.166 254.748 352.282 253.962 352.282ZM266.893 352V334.203H271.741V337.308H271.84C272.106 336.212 272.587 335.36 273.285 334.751C273.982 334.142 274.851 333.838 275.891 333.838C276.157 333.838 276.411 333.854 276.655 333.888C276.898 333.921 277.108 333.965 277.286 334.021V338.287C277.086 338.21 276.832 338.149 276.522 338.104C276.212 338.049 275.88 338.021 275.526 338.021C274.729 338.021 274.048 338.176 273.484 338.486C272.919 338.796 272.488 339.25 272.189 339.848C271.89 340.445 271.741 341.176 271.741 342.039V352H266.893Z" fill="white"/>
</g>
<defs>
<clipPath id="clip0_26_4961">
<rect width="430" height="932" fill="white"/>
</clipPath>
<clipPath id="clip1_26_4961">
<rect width="430" height="45" fill="white" transform="translate(0 52)"/>
</clipPath>
</defs>
</svg>
