<svg width="256" height="256" viewBox="0 0 256 256" fill="none" xmlns="http://www.w3.org/2000/svg">
<rect width="256" height="256" rx="56" fill="url(#paint0_linear_7_276)"/>
<g clip-path="url(#clip0_7_276)">
<path d="M199.672 118.307L137.865 66.4834C132.439 61.9338 123.56 61.9338 118.135 66.4834L56.3275 118.307C50.9015 122.857 52.2552 126.579 59.3363 126.579H74.1429C74.1429 126.579 75.6439 126.646 75.6439 128C75.6439 141.658 75.6439 182.629 75.6439 182.629C75.6439 188.317 80.2554 192.929 85.9435 192.929H170.056C175.745 192.929 180.355 188.318 180.355 182.629C180.355 182.629 180.355 141.581 180.355 127.898C180.355 126.646 181.715 126.58 181.715 126.58H196.663C203.745 126.579 205.099 122.857 199.672 118.307ZM154.017 154.579C149.851 160.915 131.915 175.982 128.027 175.982C124.221 175.981 106.122 160.86 101.982 154.579C99.9106 151.434 98.4401 147.964 98.683 143.402C99.1162 135.328 105.718 128.66 113.803 128.66C122.115 128.66 126.957 137.528 128 137.529C129.195 137.529 134.242 128.66 142.197 128.66C150.283 128.66 156.884 135.327 157.317 143.402C157.561 147.964 156.095 151.42 154.017 154.579Z" fill="white"/>
</g>
<defs>
<linearGradient id="paint0_linear_7_276" x1="128" y1="0" x2="128" y2="256" gradientUnits="userSpaceOnUse">
<stop stop-color="#9DEAC1"/>
<stop offset="0.975" stop-color="#338680"/>
</linearGradient>
<clipPath id="clip0_7_276">
<rect width="150" height="150" fill="white" transform="translate(53 53)"/>
</clipPath>
</defs>
</svg>
